<svg xmlns="http://www.w3.org/2000/svg" viewBox="0 0 218.48 387.36"><defs><style>.cls-1{fill:#27671e;}.cls-2{fill:#518f1f;}</style></defs><title>Asset 1</title><g id="Layer_2" data-name="Layer 2"><g id="Layer_1-2" data-name="Layer 1"><path class="cls-1" d="M179.4,387.36a100.76,100.76,0,0,0-8.18-6l-2.86-1.92c-1-.68-2-1.47-3.07-2.24q-3.2-2.34-6.94-5a321.94,321.94,0,0,1-34.26-29.25,275.88,275.88,0,0,1-36.22-44.32,270.14,270.14,0,0,1-28.08-55.86c-.45-1.23-1-2.44-1.35-3.7l-1.18-3.74-2.37-7.46c-.43-1.23-.71-2.5-1-3.75l-1-3.75c-.63-2.5-1.3-5-1.91-7.47l-1.48-7.48-.74-3.71-.37-1.84c-.12-.61-.18-1.24-.28-1.85l-1-7.36c-.33-2.43-.75-4.84-.89-7.25A266.28,266.28,0,0,1,46,131c.4-3.8.92-7.42,1.33-10.88s1-6.69,1.55-9.74,1-5.9,1.56-8.51l1.66-7.14,1.34-5.75,1.2-4.18,1-3.48-1.15,3.43-1.38,4.14-1.57,5.7-1.95,7.09c-.66,2.6-1.21,5.45-1.89,8.48s-1.43,6.26-1.92,9.72-1.19,7.08-1.73,10.89a261.13,261.13,0,0,0-1.52,53c.08,2.45.43,4.9.69,7.39l.85,7.5c.08.63.13,1.26.23,1.89l.32,1.88.65,3.79,1.31,7.65c.55,2.54,1.17,5.09,1.75,7.65l.89,3.85c.31,1.28.56,2.58,1,3.85l2.24,7.66,1.13,3.85c.36,1.29.87,2.53,1.3,3.8A260.63,260.63,0,0,0,82.75,302,252.55,252.55,0,0,0,120,347.14,234.36,234.36,0,0,0,156.1,375.5q4,2.39,7.48,4.41c1.16.66,2.25,1.33,3.34,1.88l3.14,1.53A99.56,99.56,0,0,0,179.4,387.36Z"/><path class="cls-2" d="M136.84,362.6a16.28,16.28,0,0,0-4-1.69q-1.14-.33-2.42-.57c-.86-.15-1.71-.32-2.64-.5-1.85-.35-3.83-.58-6-.81q-1.64-.2-3.38-.36c-1.16-.11-2.34-.18-3.6-.32s-2.54-.22-3.81-.37-2.58-.31-3.93-.52-2.7-.34-4.12-.56l-4.31-.68A142.73,142.73,0,0,1,80.42,352l-2.34-.67-2.36-.75c-1.59-.49-3.07-1.08-4.59-1.62l-4.54-1.81-2.24-.91-2.23-1-4.37-1.92c-1.41-.7-2.76-1.42-4.09-2.11-2.66-1.35-5.2-2.83-7.56-4.15l-1.73-1-1.66-1-1.58-1-1.44-.95c-.93-.62-1.8-1.18-2.61-1.74l-2.22-1.55-4.24-3L34.8,331,37,333.18c.81.77,1.68,1.57,2.64,2.42l3.14,2.63,1.71,1.41,1.79,1.41c2.45,1.89,5,4.06,7.93,6l4.5,3,4.68,2.9,2.4,1.46c.81.48,1.61.93,2.43,1.39l5.12,2.6c1.71.82,3.43,1.6,5.15,2.39l2.59,1.16L83.65,363c3.51,1.37,7,2.49,10.44,3.47q2.55.73,5,1.33l2.44.57,2.46.45q2.42.38,4.74.68c1.54.2,3,.29,4.45.4a62.63,62.63,0,0,0,8,.09,35.14,35.14,0,0,0,3.51-.4q1.65-.25,3.12-.57a26.22,26.22,0,0,0,4.91-1.68,9.17,9.17,0,0,0,1.77-1,8.09,8.09,0,0,0,1.28-1.16A4,4,0,0,0,136.84,362.6Z"/><path class="cls-1" d="M136.84,362.6a22.91,22.91,0,0,0-2.85,0l-2,.12c-.71.05-1.48.12-2.33.15L127,363l-2.92.07-3.25,0c-1.13,0-2.29,0-3.53-.07-2.47-.12-5.08-.2-7.91-.5-1.42-.12-2.81-.25-4.25-.49l-4.43-.74c-3-.56-6.16-1.21-9.38-2-.8-.19-1.62-.39-2.43-.6L86.52,358q-2.4-.74-4.84-1.59l-2.43-.82-2.45-.92-4.88-1.87-4.7-2.18c-.78-.37-1.54-.72-2.32-1.1l-2.3-1.17L58.12,346c-1.48-.81-2.93-1.6-4.27-2.45-2.71-1.61-5.3-3.34-7.68-4.9l-1.75-1.15-1.68-1.16c-1.08-.77-2.16-1.46-3.07-2.19s-1.81-1.37-2.62-2l-2.22-1.79-4.22-3.42,4.2,3.65L37,332.49c.81.69,1.68,1.38,2.62,2.15s2,1.51,3.1,2.33l1.69,1.24,1.76,1.24c2.4,1.67,5,3.53,7.75,5.27,1.37.89,2.87,1.73,4.36,2.61l4.55,2.5,2.33,1.26c.78.42,1.56.8,2.35,1.2,1.57.79,3.15,1.59,4.84,2.32l5,2,2.5,1,2.47.9q2.48.93,4.93,1.73c1.67.5,3.34.95,5,1.36,3.28.84,6.47,1.54,9.54,2.12,1.53.26,3,.54,4.51.74s2.94.29,4.36.42c2.85.28,5.46.31,7.92.37,1.24,0,2.38,0,3.5-.05l3.19-.15c2-.21,3.84-.5,5.42-.75.8-.12,1.5-.29,2.14-.44s1.23-.31,1.74-.46A12.55,12.55,0,0,0,136.84,362.6Z"/><path class="cls-2" d="M113.13,340.64a19.33,19.33,0,0,0-3.57-2.23q-1-.51-2.13-1c-.75-.3-1.54-.57-2.38-.86-1.68-.57-3.51-1.05-5.49-1.53q-1.5-.38-3.09-.73c-1.05-.23-2.17-.44-3.25-.73l-6.93-1.67L82.58,331l-3.86-1c-2.65-.66-5.23-1.47-7.9-2.33S65.45,326,62.72,325l-2-.73-2.06-.79c-1.39-.52-2.66-1.11-4-1.67l-3.92-1.8-1.93-.9-1.92-.95-3.75-1.86c-1.22-.65-2.47-1.27-3.58-1.94-2.27-1.27-4.42-2.64-6.42-3.85l-1.47-.9-1.41-.91-2.6-1.69-2.3-1.51c-.72-.48-1.35-.94-1.91-1.37l-3.57-2.65,3.48,3.85,1.94,2,2.3,2.22,2.63,2.5,1.43,1.34,1.5,1.35,3.19,2.84c1.16.94,2.36,1.89,3.59,2.83l3.79,2.9,4,2.86,2,1.44c.67.49,1.4.91,2.12,1.35l4.37,2.64L60.59,334l2.22,1.21L65,336.31a124.79,124.79,0,0,0,17.72,6.86c1.42.38,2.84.71,4.21,1s2.69.53,4,.76a62.8,62.8,0,0,0,7.22.84c1.12.09,2.16.08,3.16.06s1.94-.07,2.86-.17a23.51,23.51,0,0,0,4.67-1,8.79,8.79,0,0,0,1.73-.78,7.11,7.11,0,0,0,1.3-.94A3.73,3.73,0,0,0,113.13,340.64Z"/><path class="cls-1" d="M113.13,340.64a20.82,20.82,0,0,0-2.66-.4l-1.84-.17c-.65-.06-1.35-.12-2.12-.22l-5.13-.55-3-.38c-1-.14-2.11-.25-3.24-.45l-3.48-.56c-1.2-.19-2.42-.42-3.65-.72s-2.48-.54-3.77-.88l-3.95-1c-2.69-.75-5.46-1.58-8.3-2.51s-5.55-2.09-8.38-3.3l-2.11-.89-2.12-1-4.22-1.95c-1.41-.69-2.71-1.45-4.05-2.16l-2-1.09-2-1.14L43.34,319l-3.68-2.31c-2.39-1.48-4.51-3.14-6.54-4.59L31.63,311,30.22,310l-2.61-2-2.3-1.79c-.71-.58-1.37-1.1-1.92-1.6l-3.53-3.13,3.51,3.37c.55.54,1.23,1.09,1.93,1.72l2.3,1.94,2.62,2.17,1.42,1.17L33.11,313c2,1.56,4.15,3.37,6.62,4.95l3.72,2.5,3.87,2.45,2,1.24,2,1.19c1.33.8,2.74,1.56,4.18,2.31l4.28,2.12,2.15,1,2.14,1a113.15,113.15,0,0,0,17,6.15l4,1.07c1.31.34,2.56.6,3.85.84,2.57.51,4.95.81,7.19,1.1,1.13.16,2.19.23,3.21.32l2.94.21c1.86.09,3.51.08,5,.06.73,0,1.41-.08,2-.14s1.17-.13,1.67-.21A11.06,11.06,0,0,0,113.13,340.64Z"/><path class="cls-2" d="M93.9,317.14a22.42,22.42,0,0,0-7-5.12c-1.49-.79-3.13-1.5-4.9-2.23q-1.34-.57-2.77-1.11l-2.85-1.18c-2-.83-4-1.59-6.19-2.49s-4.42-1.76-6.74-2.72c-4.56-2-9.24-4.23-14-6.75l-1.79-.92-1.79-1-3.43-2L39,289.49l-1.67-1.06-1.65-1.09L32.5,285.2c-1-.74-2.12-1.44-3.06-2.19-1.93-1.43-3.75-2.93-5.44-4.27l-1.24-1-1.18-1-2.19-1.85-1.93-1.64-1.64-1.45-3-2.83.7,1c.48.67,1.09,1.68,2,2.9l1.54,2L19,277.26l2.1,2.61,1.14,1.41,1.21,1.43c.83,1,1.67,2,2.58,3s1.93,2,2.94,3l3.13,3.15L35.37,295l1.69,1.59c.57.53,1.14,1,1.76,1.53l3.7,3L46.29,304l1.9,1.41,1.9,1.33L52,308.07l2,1.22q2,1.19,3.95,2.27c2.61,1.44,5.18,2.75,7.66,3.9,1.23.57,2.45,1.1,3.71,1.56s2.43.85,3.61,1.24A59.8,59.8,0,0,0,79.51,320c1,.23,2,.36,2.92.48s1.81.2,2.65.25a18.47,18.47,0,0,0,4.4-.3C92,319.9,93.52,318.77,93.9,317.14Z"/><path class="cls-1" d="M93.9,317.14a57,57,0,0,0-6-1.76c-2.77-.72-6.28-1.62-10.36-2.87-1-.32-2.08-.63-3.14-1s-2.12-.76-3.22-1.2S69,309.49,67.82,309l-3.52-1.48c-2.37-1.05-4.88-2.15-7.32-3.4s-4.85-2.64-7.3-4.12l-1.84-1.09L46,297.77l-3.65-2.31L38.92,293l-1.69-1.25-1.66-1.29-3.25-2.54-3.1-2.56c-2-1.64-3.76-3.43-5.45-5l-1.23-1.17L21.37,278l-2.15-2.15-1.89-1.91-1.6-1.68c-1.85-2.07-2.87-3.27-2.87-3.27l.73.92c.49.59,1.15,1.48,2.09,2.57l1.58,1.79,1.87,2,2.13,2.3,1.16,1.24,1.22,1.25c1.68,1.69,3.4,3.6,5.48,5.34l3.11,2.75,3.26,2.73,1.67,1.39,1.7,1.35L40.59,296c.59.44,1.21.87,1.81,1.31l3.69,2.49L48,301.06l1.86,1.17q1.86,1.18,3.71,2.28c1.23.74,2.46,1.44,3.74,2.07,2.54,1.29,5,2.47,7.45,3.56l3.56,1.52c1.17.49,2.3.89,3.41,1.32,2.26.84,4.47,1.42,6.5,2,1,.3,2,.51,2.94.73l2.7.6c1.71.34,3.24.56,4.58.74a33.21,33.21,0,0,0,3.38.25A10.35,10.35,0,0,0,93.9,317.14Z"/><path class="cls-2" d="M76.89,292.45a18.41,18.41,0,0,0-5.41-5.6,41.63,41.63,0,0,0-3.87-2.49q-1.06-.63-2.19-1.24l-2.23-1.28c-1.54-.89-3.15-1.72-4.85-2.67l-2.59-1.39-2.68-1.47c-3.7-2-7.26-4.23-11-6.68l-1.38-.9-1.38-.95-2.74-1.89c-.9-.66-1.84-1.3-2.67-2l-1.27-1-1.25-1-2.44-2-2.33-2c-1.53-1.3-3-2.65-4.29-3.86l-1-.9c-.32-.3-.63-.6-.91-.9l-1.63-1.69L17.39,249l-1.21-1.32-2.31-2.52,1.93,3.54,1,1.86,1.24,2.14c.43.77,1,1.55,1.52,2.38l.85,1.28.9,1.3c1.23,1.76,2.57,3.71,4,5.64l2.25,3c.76,1,1.67,1.94,2.52,2.94l1.32,1.49,1.35,1.46,2.76,2.92,2.84,2.81c.48.46.95.94,1.45,1.39l1.53,1.29a102.72,102.72,0,0,0,12.17,8.9q1.54.86,3,1.63c1,.52,2,.95,2.9,1.38a45.07,45.07,0,0,0,5.35,2,23,23,0,0,0,2.4.63q1.15.25,2.18.39a13.78,13.78,0,0,0,3.63,0C75.18,295.1,76.46,294.1,76.89,292.45Z"/><path class="cls-1" d="M76.89,292.45c-1.8-1.21-6.6-2.7-13.12-5.55-1.64-.73-3.37-1.45-5.09-2.4-.87-.46-1.76-.9-2.67-1.41l-2.77-1.56A97.33,97.33,0,0,1,41.76,274l-1.41-1.07L39,271.79l-2.78-2.26-2.72-2.34L32.11,266c-.45-.4-.86-.81-1.27-1.21l-2.42-2.4L26.12,260c-1.5-1.55-2.89-3.13-4.19-4.57L21,254.38l-.9-1c-.59-.68-1.07-1.35-1.57-2l-1.36-1.76L16,248.06l-2.16-2.93L16,248.26l1.1,1.64,1.32,1.88c.47.67,1,1.38,1.55,2.11l.88,1.12.93,1.14c1.27,1.54,2.65,3.25,4.13,4.92l2.28,2.6c.79.85,1.58,1.73,2.42,2.59l1.31,1.29,1.34,1.26L36,271.35l2.8,2.44L40.18,275l1.42,1.15a66.78,66.78,0,0,0,5.89,4.29c2,1.32,3.94,2.55,5.84,3.68l2.81,1.61c.93.51,1.8,1,2.73,1.41,1.84.89,3.59,1.59,5.24,2.25C70.69,292,75.41,292.73,76.89,292.45Z"/><path class="cls-2" d="M60.2,259.64c-1.72-4.65-6.28-10-12.78-16.06-3-3.1-6.49-6.42-10.17-9.91-1.89-1.73-3.6-3.57-5.42-5.42l-5.45-5.67-2.73-2.87c-.91-1-1.71-1.95-2.56-2.92L16.18,211l-4.58-5.56c-1.37-1.8-2.64-3.53-3.82-5.14-2.36-3.24-4.32-6-5.69-7.93S0,189.3,0,189.3l.38,1.07,1.22,3c.53,1.3,1.18,2.87,1.94,4.64s1.62,3.78,2.59,5.91,2.16,4.41,3.41,6.78,2.62,4.83,4,7.33,3,5,4.71,7.49,3.41,4.94,5.16,7.33l1.32,1.79c.46.58.94,1.16,1.42,1.73q1.43,1.71,2.86,3.35c1.9,2.18,3.8,4.25,5.67,6.18l1.39,1.42,1.46,1.34Q39,250,40.42,251.17c1.87,1.58,3.68,3,5.38,4.22a43,43,0,0,0,4.82,3.07,24.67,24.67,0,0,0,4.21,1.75C57.34,260.93,59.19,260.79,60.2,259.64Z"/><path class="cls-1" d="M60.2,259.64a57.29,57.29,0,0,0-5-4.26l-8.47-7.11c-3.4-2.77-6.83-6.1-10.53-9.74-1.84-1.82-3.76-3.71-5.63-5.69s-3.59-4.06-5.39-6.17-3.58-4.23-5.32-6.38-3.21-4.34-4.74-6.48c-3-4.28-5.93-8.4-8-12.06-1.1-1.81-2.08-3.52-3-5l-2.26-3.95c-.62-1.1-1.12-2-1.43-2.57L0,189.3l.43,1L1.8,193c.59,1.17,1.31,2.58,2.15,4.17s1.78,3.41,2.84,5.32l1.65,3c.59,1,1.27,2.07,1.93,3.14,1.34,2.14,2.77,4.36,4.26,6.61l2.28,3.41,1.17,1.71L19.35,222c1.72,2.25,3.48,4.5,5.27,6.69L27.29,232l1.34,1.6c.46.52,1,1,1.42,1.54,1.91,2,3.8,4,5.65,5.85s3.64,3.62,5.43,5.23,3.62,3.07,5.29,4.42A102.82,102.82,0,0,0,55.06,257,26.29,26.29,0,0,0,60.2,259.64Z"/><path class="cls-2" d="M47.84,224.36a16.85,16.85,0,0,0-3.4-6.46c-.81-1-1.78-2-2.76-3.06s-2-2.06-3.15-3.1-2.34-2.08-3.59-3.18L33,206.94l-2-1.68c-2.76-2.26-5.42-4.63-8.1-7.14s-5.35-5.06-7.84-7.6c-1.27-1.27-2.38-2.53-3.45-3.75s-2.08-2.4-3-3.51-1.77-2.17-2.52-3.08-1.4-1.76-1.94-2.45l-1.69-2.16,1.17,3.24c.38,1,.84,2.28,1.4,3.66s1.18,3,1.9,4.64l1.13,2.58,1.38,2.71c1,1.84,2,3.75,3.1,5.66s2.26,3.84,3.47,5.73,2.65,3.72,4,5.48a79.66,79.66,0,0,0,8.54,9.41q1.13,1,2.23,1.87c.73.59,1.46,1.12,2.18,1.64a35.8,35.8,0,0,0,4.11,2.58C42.36,227.57,46.38,227.53,47.84,224.36Z"/><path class="cls-1" d="M47.84,224.36c-1.27-1.49-5.05-3.81-10-7.41-1.27-.91-2.46-1.87-3.78-2.95-.65-.54-1.31-1.06-2-1.64l-2-1.76c-1.37-1.22-2.78-2.49-4.19-3.83l-2.12-2c-.72-.7-1.41-1.41-2.05-2.15-2.65-2.89-5.22-6-7.59-9-1.18-1.53-2.33-3-3.36-4.5S8.8,186.14,8,184.8s-1.6-2.6-2.27-3.7S4.43,179,4,178.17l-1.48-2.59,1.38,2.81c.44.89,1,2,1.61,3.17s1.34,2.59,2.15,4,1.65,3,2.66,4.58,2.13,3.23,3.29,4.88a114.73,114.73,0,0,0,7.52,9.76,114,114,0,0,0,8.45,8.48l2.06,1.81c.68.58,1.35,1.11,2,1.65,1.36,1.07,2.72,2,4,2.81C42.65,222.86,46.51,224.41,47.84,224.36Z"/><path class="cls-2" d="M43,189.7a14.43,14.43,0,0,0-1.08-3.47,20.79,20.79,0,0,0-1.75-3.42,33.75,33.75,0,0,0-2.46-3.45c-.92-1.2-1.95-2.34-3-3.58s-2.3-2.45-3.45-3.79l-1.76-2-1.82-2.06c-2.45-2.81-5-5.76-7.56-8.94l-1-1.17-.87-1.21-1.74-2.4c-1.12-1.66-2.26-3.23-3.31-4.89l-1.56-2.41-1.46-2.39c-1-1.54-1.84-3.09-2.57-4.49-.38-.7-.74-1.38-1.06-2.06l-.95-1.89-.83-1.68L4.05,133l-1.31-2.78.61,3.7.34,1.95.44,2.25.52,2.55c.16.9.43,1.84.69,2.8.54,1.92,1.11,4,1.8,6.16l1.06,3.29,1.18,3.33a34.16,34.16,0,0,0,1.36,3.38L12.27,163l1.63,3.31.84,1.64.87,1.59q.87,1.6,1.78,3.12c.59,1,1.3,2,2,2.94,1.34,1.9,2.71,3.68,4.07,5.31q1,1.2,2,2.32c.68.74,1.36,1.4,2,2.05a29.22,29.22,0,0,0,4,3.31,24.31,24.31,0,0,0,3.77,2.14,12.07,12.07,0,0,0,3.26.92A4.34,4.34,0,0,0,43,189.7Z"/><path class="cls-1" d="M43,189.7a26.26,26.26,0,0,0-3.58-3.37c-1.63-1.45-3.71-3.25-6-5.47-1.16-1.13-2.4-2.28-3.66-3.61-.63-.66-1.29-1.3-1.94-2l-2-2.17a120.56,120.56,0,0,1-7.51-9.91l-.92-1.34-.9-1.38-1.76-2.76c-1-1.91-2.09-3.73-3-5.63l-1.41-2.77-1.3-2.75c-.85-1.77-1.62-3.55-2.29-5.16-.32-.8-.62-1.58-.88-2.35L5,136.88,4.32,135l-.54-1.66-1-3.15.89,3.33.48,1.75.59,2,.69,2.28c.25.81.49,1.64.81,2.49.65,1.72,1.34,3.6,2.14,5.49l1.22,2.93,1.33,3c.92,2,1.84,4,3,6l1.72,2.94.88,1.47.9,1.42c1.2,1.91,2.44,3.74,3.69,5.47.63.87,1.24,1.71,1.9,2.53s1.35,1.61,2,2.39l2,2.22c.66.72,1.32,1.37,2,2,1.29,1.33,2.56,2.45,3.75,3.51C37.44,187.6,41.58,189.57,43,189.7Z"/><path class="cls-2" d="M41.46,163c-.08-4.79-2.35-9.89-5.83-15.9-.84-1.51-1.86-3-2.74-4.65L31.5,140l-1.44-2.52c-1.92-3.42-4.05-7-5.93-10.77S20.54,119.2,19,115.47c-.77-1.86-1.59-3.71-2.19-5.46s-1.2-3.44-1.72-5-1-3.07-1.39-4.37-.75-2.48-1-3.45l-.88-3,.08,3.77c0,1.2.07,2.66.16,4.31s.17,3.53.34,5.52c.09,1,.14,2,.28,3.12s.3,2.2.48,3.32l.55,3.48.65,3.56c.22,1.22.47,2.42.73,3.63l.4,1.82.5,1.85L17,132.16l.57,1.82.6,1.78c.8,2.38,1.66,4.69,2.57,6.88s2.06,4.3,3.13,6.26q.81,1.45,1.62,2.82c.54.91,1.1,1.74,1.64,2.56a37.5,37.5,0,0,0,3.31,4.34,29.35,29.35,0,0,0,3.33,3.14,13.9,13.9,0,0,0,3,1.83C38.69,164.34,40.3,164.18,41.46,163Z"/><path class="cls-1" d="M41.46,163a29.45,29.45,0,0,0-2.93-4.29q-2.12-2.84-5-7.06c-.94-1.42-2-2.89-3-4.53-.51-.81-1-1.62-1.57-2.49s-1.06-1.75-1.53-2.64c-1.94-3.61-3.92-7.54-5.74-11.7-.46-1-.92-2.07-1.36-3.12l-1.16-3.14c-.75-2.1-1.45-4.22-2.11-6.3s-1.27-4.12-1.82-6.09-.91-3.83-1.3-5.58-.68-3.39-1-4.83-.51-2.73-.68-3.79l-.56-3.33.4,3.48c.13,1.11.29,2.45.51,4s.44,3.24.76,5.06a109.3,109.3,0,0,0,2.74,12.26c.59,2.19,1.23,4.41,1.93,6.62.33,1.1.72,2.21,1.16,3.31s.85,2.19,1.3,3.27c.87,2.18,1.79,4.29,2.74,6.32q.71,1.52,1.43,3c.47,1,1,1.93,1.52,2.86l1.59,2.7c.53.88,1.07,1.7,1.59,2.51,1,1.64,2.09,3.1,3.08,4.47s2,2.57,2.85,3.64,1.83,2,2.61,2.74A13.79,13.79,0,0,0,41.46,163Z"/><path class="cls-2" d="M43,127.63a17.56,17.56,0,0,0,.07-7.25,36.8,36.8,0,0,0-1-4c-.43-1.4-.78-2.82-1.28-4.3-1.88-5.88-4.87-12.63-7.09-19.59-1.19-3.46-2.35-7-3.34-10.39S28.69,75.51,28,72.7c-.34-1.39-.59-2.71-.85-3.87s-.46-2.18-.63-3-.27-1.5-.35-2l-.11-.69L26,64c-.09.55-.18,1.36-.28,2.41s-.22,2.32-.32,3.75-.23,3.08-.31,4.84-.16,3.66-.21,5.65.11,4.13.23,6.29.28,4.37.49,6.58q.16,1.66.36,3.31c.15,1.11.37,2.22.57,3.31a103.56,103.56,0,0,0,3,12.36c.28.93.67,1.85,1,2.73s.73,1.71,1.1,2.53a42.68,42.68,0,0,0,2.28,4.37C37,127.3,40.34,129.5,43,127.63Z"/><path class="cls-1" d="M43,127.63c-.38-1.94-2.45-6-5-11.6-.67-1.41-1.23-2.9-1.85-4.49s-1.24-3.25-1.86-5S33,103,32.4,101.16l-.89-2.82-.73-2.85C29.8,91.69,29,87.76,28.24,84c-.39-1.89-.62-3.7-.83-5.44s-.4-3.4-.56-4.95-.27-3-.39-4.25S26.27,67,26.22,66s-.09-1.65-.1-2.13l0-.75,0,.78c0,.51,0,1.26,0,2.23s0,2.14.06,3.46.07,2.84.16,4.44A103.3,103.3,0,0,0,27.19,85c.56,3.94,1.26,8.06,2.12,12s2.17,7.93,3.37,11.49l.93,2.61c.31.85.64,1.66.95,2.45.64,1.61,1.4,3.08,2.06,4.46C39.36,123.53,41.83,126.95,43,127.63Z"/><path class="cls-2" d="M50.86,96.2A16.87,16.87,0,0,0,53,89a42.89,42.89,0,0,0,.44-4.7c0-1.66,0-3.45-.08-5.28s-.31-3.76-.52-5.67c-.09-1-.18-1.93-.3-2.9l-.41-2.93c-.31-2-.68-3.92-1.1-5.87S50.12,57.8,49.71,56l-.33-1.38L49,53.25,48.3,50.6c-.54-1.7-1-3.39-1.6-4.93l-.81-2.28-.84-2.11c-.52-1.38-1.13-2.61-1.57-3.73s-1-2.09-1.36-3S41.33,33,41,32.38l-1-1.84.05,2.8.07,3.19.23,4.19.51,10.43L41,54l.25,3,.48,6.12.5,6.08c.14,2,.48,4,.73,5.94q.19,1.45.41,2.84l.42,2.72c.31,1.75.58,3.44.93,5C46.22,91.88,48.12,96.13,50.86,96.2Z"/><path class="cls-1" d="M50.86,96.2c.28-2.12-.26-7.68-.93-14.53-.21-1.71-.41-3.54-.7-5.4l-.43-2.85c-.18-1-.27-1.91-.4-2.88-.53-3.86-1.15-7.87-1.91-11.73l-.57-2.89-.49-2.78c-.34-1.83-.69-3.6-1.06-5.29-.73-3.39-1.48-6.46-2.16-9l-.89-3.44c-.25-1-.49-1.88-.69-2.59L40,30.54,40.44,33c.14.76.32,1.69.49,2.79s.42,2.29.67,3.69c.51,2.74,1.07,6,1.62,9.5.27,1.76.54,3.59.79,5.47l.91,5.83c.63,3.93,1.13,8,1.62,11.8L47,74.92l.42,2.81L48.2,83l.67,4.65.75,3.91A23.46,23.46,0,0,0,50.86,96.2Z"/><path class="cls-2" d="M57.77,78.41A6.63,6.63,0,0,0,60,76.67a22.4,22.4,0,0,0,2.47-3.17,69.7,69.7,0,0,0,5.1-9.87c.94-1.93,1.88-4,2.79-6.17q.69-1.63,1.36-3.33c.46-1.13.87-2.3,1.4-3.43,1-2.28,2-4.64,2.94-7s1.83-4.83,2.88-7.16C82.83,27,86.67,17.88,89.57,11.13c.77-1.66,1.43-3.2,2-4.55l1.52-3.51L94.41,0,86.94,10.22l-.86,1.17-.83,1.26L83.52,15.3l-3.76,5.75c-1.36,2-2.56,4.14-3.82,6.33l-3.85,6.67c-.32.56-.65,1.12-1,1.69l-.87,1.73-1.73,3.46-3.36,6.82c-2,4.57-3.72,9-5.18,13a71.91,71.91,0,0,0-2.66,10.75,21.94,21.94,0,0,0-.28,4A7.86,7.86,0,0,0,57.77,78.41Z"/><path class="cls-1" d="M57.77,78.41a21.39,21.39,0,0,0,1.05-2.21c.45-1,1-2.14,1.59-3.51C61.62,70,63,66.45,64.53,62.47c1.73-3.91,3.49-8.35,5.41-13C71,47.25,72,44.92,73,42.57s2-4.77,3.15-7,2.22-4.61,3.27-6.87L81,25.29c.54-1.09,1.11-2.14,1.64-3.19l3.07-6c1-1.91,1.83-3.75,2.77-5.33L91,6.36,92.81,3l1.59-3L92.66,2.91l-2,3.34L88,10.58c-1,1.56-1.93,3.38-3,5.26l-3.3,5.93c-.57,1-1.19,2.06-1.74,3.15L78.3,28.24,74.84,35,74,36.75c-.29.58-.53,1.17-.81,1.76L71.56,42l-3.19,6.9c-1.94,4.59-3.69,9-5.33,13-1.48,4-2.67,7.58-3.63,10.4-.47,1.42-.87,2.65-1.16,3.67A21.71,21.71,0,0,0,57.77,78.41Z"/><path class="cls-2" d="M144.36,359.11a7.63,7.63,0,0,0,3.2.46,7,7,0,0,0,1.66-.34,8.36,8.36,0,0,0,1.66-.7,14.76,14.76,0,0,0,5.78-6.14l.58-1.1.51-1.18c.35-.79.62-1.66.91-2.53a40.94,40.94,0,0,0,1.25-5.75c.17-1,.25-2.08.36-3.14s.14-2.15.14-3.26a58.73,58.73,0,0,0-.28-6.68c-.1-1.11-.24-2.23-.41-3.34s-.29-2.29-.47-3.41c-.38-2.26-.81-4.45-1.35-6.54-1.1-4.11-2.23-8.16-3.43-11.4-.6-1.64-1.2-3.1-1.76-4.38s-1-2.49-1.37-3.42-.74-1.65-1-2.14l-.35-.75.11.75c.07.49.21,1.21.32,2.14.28,1.82.49,4.53.83,7.52a85.9,85.9,0,0,1,.35,10.31c0,.93-.06,1.89-.11,2.83l-.12,2.8c-.14,1.87-.3,3.77-.56,5.63s-.55,3.73-.93,5.53c-.16.92-.4,1.79-.58,2.68s-.42,1.75-.66,2.59c-.44,1.72-1,3.33-1.4,4.86-.26.75-.46,1.52-.72,2.24l-.34,1.09-.36,1a55,55,0,0,0-2.12,7.51c-.08.58-.16,1.12-.19,1.66a11.33,11.33,0,0,0,0,1.59A7.91,7.91,0,0,0,144.36,359.11Z"/><path class="cls-1" d="M144.36,359.11a7.25,7.25,0,0,0,1.59-.92,12.26,12.26,0,0,0,1-.82,11.58,11.58,0,0,0,1.05-1.06,26.14,26.14,0,0,0,4.31-6.66l.5-1.08.45-1.15c.32-.77.57-1.6.85-2.43a46.31,46.31,0,0,0,1.32-5.39c.2-.94.31-1.92.46-2.9s.24-2,.29-3c.19-2,.16-4.05.2-6.21s-.1-4.29-.25-6.38-.42-4.16-.75-6.15-.62-4-1-5.82-.77-3.6-1.18-5.19-.86-3-1.23-4.31-.68-2.45-1-3.38-.55-1.65-.7-2.14l-.25-.75.21.75c.13.49.35,1.21.58,2.14s.51,2.06.78,3.36.65,2.69,1,4.27a90.44,90.44,0,0,1,1.55,10.8c.23,1.93.36,3.92.45,5.95s.08,4.09,0,6.13-.27,4.13-.49,6c-.08,1-.25,1.92-.37,2.87s-.3,1.88-.51,2.78c-.36,1.83-.84,3.55-1.33,5.19-.28.8-.51,1.62-.81,2.37l-.42,1.13-.45,1.07a51.83,51.83,0,0,1-3.59,6.94c-.26.46-.53.87-.77,1.26l-.64,1.08A7,7,0,0,0,144.36,359.11Z"/><path class="cls-2" d="M122.35,337.1a8.5,8.5,0,0,0,3,1.24,7.62,7.62,0,0,0,1.61.13,6.81,6.81,0,0,0,1.66-.2,10.68,10.68,0,0,0,6.12-4.3c.21-.29.43-.59.64-.9l.58-1a21.44,21.44,0,0,0,1.05-2.15,28.83,28.83,0,0,0,1.52-5c.21-.88.34-1.81.49-2.73s.24-1.88.29-2.85a52.08,52.08,0,0,0,.09-5.84c-.09-1.91-.15-4-.31-5.91s-.36-3.85-.61-5.66-.55-3.52-.78-5.19-.45-3.25-.67-4.69c-.45-2.87-.86-5.2-1.15-6.82-.16-.8-.25-1.46-.31-1.91l-.09-.68-.53,2.28c-.28,1.43-.66,3.48-1.1,6-.88,5-2,11.94-3.39,18.21-.37,1.58-.74,3.15-1.19,4.65-.2.77-.46,1.48-.67,2.23s-.46,1.45-.73,2.13c-.47,1.41-1,2.7-1.52,4-.28.6-.51,1.25-.78,1.82l-.38.88-.38.83a52.57,52.57,0,0,0-2.38,5.93c-.12.47-.24.91-.32,1.36a10,10,0,0,0-.14,1.36A7.43,7.43,0,0,0,122.35,337.1Z"/><path class="cls-1" d="M122.35,337.1a6.38,6.38,0,0,0,1.63-.37,8.84,8.84,0,0,0,1-.47,7.45,7.45,0,0,0,1.12-.66,16.31,16.31,0,0,0,4.64-4.94l.54-.87.5-.94c.35-.62.62-1.32.94-2a34.54,34.54,0,0,0,1.5-4.54c.23-.79.38-1.64.57-2.47s.32-1.7.42-2.58c.23-1.71.44-3.59.59-5.42a102.55,102.55,0,0,0,.18-10.78c0-.86-.07-1.68-.08-2.52l0-2.46-.12-4.44-.25-6.5c0-.76,0-1.4,0-1.82v-.65l0,.63c0,.4-.1,1-.11,1.77l-.2,6.33c-.08,2.64-.21,5.83-.37,9.18s-.28,6.85-.71,10.36c-.22,1.75-.47,3.51-.82,5.19-.15.85-.38,1.68-.53,2.49s-.37,1.59-.61,2.34a40.22,40.22,0,0,1-1.48,4.32c-.3.65-.55,1.33-.88,1.93l-.45.91-.48.85C126.25,333.53,123.07,335.83,122.35,337.1Z"/><path class="cls-2" d="M99.11,313.18a7.4,7.4,0,0,0,3.07,1,7.57,7.57,0,0,0,1.66-.05,7.75,7.75,0,0,0,1.72-.41,15,15,0,0,0,6.73-5.21l.77-1,.72-1.12c.5-.75.92-1.58,1.37-2.42a39,39,0,0,0,2.28-5.59c.35-1,.66-2.08,1-3.14s.58-2.18.8-3.31a64.47,64.47,0,0,0,1.09-6.89c.13-1.16.22-2.33.28-3.5s.18-2.38.23-3.55c.1-2.38.14-4.69,0-6.94-.24-4.42-.42-8.75-.93-12.28-.22-1.79-.56-3.37-.75-4.82s-.4-2.7-.6-3.73-.37-1.82-.48-2.36l-.18-.82,0,.78c0,.51-.05,1.27-.14,2.22s-.17,2.11-.32,3.44l-.26,2.1-.23,2.27a91.68,91.68,0,0,1-1.8,10.57c-.46,1.92-.88,3.79-1.36,5.7s-1.06,3.81-1.7,5.67-1.3,3.73-2,5.51c-.34.91-.75,1.76-1.11,2.65s-.75,1.71-1.13,2.51c-.73,1.65-1.52,3.19-2.27,4.69-.4.73-.75,1.48-1.14,2.17l-.55,1.06-.56,1a61.68,61.68,0,0,0-3.56,7.34c-.19.58-.38,1.12-.52,1.67a12.89,12.89,0,0,0-.3,1.64A7.48,7.48,0,0,0,99.11,313.18Z"/><path class="cls-1" d="M99.11,313.18a7.32,7.32,0,0,0,1.72-.67,12.48,12.48,0,0,0,1.1-.68,11.82,11.82,0,0,0,1.22-.9,27.25,27.25,0,0,0,5.41-6l.69-1,.67-1.1c.47-.73.87-1.54,1.32-2.34a51.69,51.69,0,0,0,2.36-5.29c.38-.92.69-1.92,1-2.89s.63-2,.89-3c.58-2,1-4.16,1.41-6.3s.79-4.4,1.08-6.57.45-4.34.53-6.43.24-4.17.25-6.12,0-3.81-.06-5.51c-.22-3.36-.29-6.27-.49-8.26-.07-1-.18-1.78-.23-2.3l-.09-.81,0,.8c0,.52.09,1.3.11,2.28.11,2,0,4.83.06,8.11a97.18,97.18,0,0,1-.75,11.3c-.17,2-.45,4.07-.78,6.17s-.76,4.2-1.28,6.27c-.26,1-.54,2.08-.81,3.1s-.53,2-.84,3-.63,1.92-.94,2.88-.67,1.87-1.06,2.75c-.71,1.81-1.53,3.49-2.33,5.09-.43.78-.82,1.57-1.26,2.28l-.63,1.08-.65,1a56.89,56.89,0,0,1-4.85,6.48c-.34.43-.67.79-1,1.14l-.82,1A7.27,7.27,0,0,0,99.11,313.18Z"/><path class="cls-2" d="M81.1,282.46a5.41,5.41,0,0,0,5.34-.21,13.55,13.55,0,0,0,2.77-2.13c.45-.47.9-1,1.36-1.52a19.14,19.14,0,0,0,1.34-1.77,38.55,38.55,0,0,0,2.55-4.25c.4-.78.82-1.56,1.2-2.4l1.12-2.57a104.79,104.79,0,0,0,4.08-11.46l.44-1.48.39-1.5.75-2.94.77-3,.37-1.45.33-1.44.62-2.78.51-2.67c.17-.85.32-1.69.45-2.51s.32-1.62.48-2.38l.23-1.11.19-1.07.34-2,.28-1.71.2-1.46.36-2.73-1.15,2.19-.59,1.17-.73,1.36-.83,1.56-.44.85-.49.87c-.67,1.19-1.35,2.52-2.15,3.87L100,238c-.42.71-.79,1.42-1.2,2.17l-.6,1.12-.63,1.12-1.28,2.31L95,247l-.67,1.19-.7,1.17c-1.78,3.17-3.79,6.33-5.4,9.35l-2.43,4.46c-.75,1.49-1.51,2.87-2.15,4.29l-.94,2.06q-.44,1-.8,2a23,23,0,0,0-1.15,3.88A13.2,13.2,0,0,0,81.1,282.46Z"/><path class="cls-1" d="M81.1,282.46a12.12,12.12,0,0,0,3.06-2.92c.63-.81,1.35-1.73,2.08-2.79l1.11-1.7c.38-.6.79-1.2,1.16-1.87.77-1.33,1.55-2.68,2.37-4.25.41-.77.85-1.53,1.25-2.35l1.22-2.47c1.6-3.38,3.19-6.95,4.54-10.59l.52-1.35c.16-.46.35-.93.53-1.39l1.06-2.73,1-2.71.47-1.32.43-1.32.85-2.53.74-2.44,1.46-4.5.33-1,.29-1,.53-1.8.46-1.57.36-1.34.68-2.51-.83,2.4-.44,1.28-.55,1.5-.63,1.72-.34.94-.38,1c-.53,1.32-1.06,2.79-1.71,4.3l-.86,2.33-1,2.41-.49,1.25-.53,1.25L98.78,247l-1.16,2.6L97,250.88l-.62,1.3c-1.53,3.51-3.14,6.89-4.77,10.17l-1.23,2.4c-.4.79-.83,1.54-1.23,2.3-.79,1.53-1.62,2.92-2.37,4.29l-1.08,1.93-1,1.8c-.64,1.14-1.24,2.17-1.73,3.13A18.77,18.77,0,0,0,81.1,282.46Z"/><path class="cls-2" d="M63.44,248.27a4.79,4.79,0,0,0,2.45,1,5.76,5.76,0,0,0,1.38,0,5.23,5.23,0,0,0,1.45-.37,13.19,13.19,0,0,0,3.06-1.76c.51-.42,1-.88,1.55-1.38a16.65,16.65,0,0,0,1.57-1.65A35.35,35.35,0,0,0,78,240c.48-.77,1-1.53,1.46-2.38l1.38-2.58q.66-1.34,1.29-2.74l1.33-2.88c.87-2,1.68-4,2.38-6l.55-1.52.49-1.55.94-3.06,1-3.09c.15-.51.31-1,.45-1.5l.4-1.51.75-2.89.6-2.8c.41-1.78.85-3.57,1.19-5.14l.26-1.16.21-1.12L93,196c.11-.64.22-1.23.3-1.79l.2-1.54.54-2.91-1.26,2.4q-.31.58-.61,1.27c-.21.46-.47.93-.73,1.46l-.83,1.66-.45.9-.5.92c-.69,1.26-1.38,2.67-2.22,4.08l-1.24,2.22c-.46.74-.9,1.49-1.31,2.25l-.63,1.16-.67,1.15-1.36,2.36-1.45,2.35-.72,1.2-.76,1.17c-1,1.6-2,3.16-3,4.69l-2.89,4.49q-.73,1.08-1.42,2.18l-1.4,2.1c-.88,1.43-1.8,2.71-2.59,4.06-.39.69-.8,1.3-1.17,1.94s-.73,1.28-1,1.91a25,25,0,0,0-1.53,3.62c-.19.62-.37,1.19-.51,1.76a13.77,13.77,0,0,0-.31,1.74A11.88,11.88,0,0,0,63.44,248.27Z"/><path class="cls-1" d="M63.44,248.27a5.65,5.65,0,0,0,1.43-.77q.44-.3,1-.7a9.85,9.85,0,0,0,1.08-.92c.74-.72,1.58-1.53,2.45-2.49l1.32-1.58c.45-.55.94-1.1,1.38-1.75.9-1.27,1.89-2.56,2.79-4.06.46-.74.94-1.45,1.41-2.25l1.46-2.44a99.28,99.28,0,0,0,5.38-10.69l.61-1.38c.18-.46.38-.94.59-1.42l1.24-2.8,1.12-2.8c.18-.46.37-.9.54-1.36l.49-1.37.94-2.64c.29-.88.51-1.73.85-2.57.65-1.65,1.14-3.28,1.63-4.73l.35-1.07.3-1,.55-1.9c.17-.6.34-1.14.47-1.66s.23-1,.36-1.43l.83-2.71-1,2.61c-.17.42-.28.87-.44,1.38s-.36,1-.56,1.59l-.64,1.82-.35,1-.4,1c-.56,1.39-1.11,2.94-1.83,4.51-.34.8-.71,1.62-1,2.46l-1,2.51-.53,1.3-.58,1.29-1.2,2.66-1.31,2.66-.66,1.35-.7,1.32c-1.65,3.55-3.58,7-5.49,10.17l-1.45,2.35c-.48.78-1,1.48-1.47,2.22-1,1.5-1.86,2.77-2.72,4.06-.41.66-.87,1.22-1.28,1.8l-1.2,1.68c-.79,1.05-1.53,2-2.15,2.86-.31.45-.61.83-.89,1.2s-.53.72-.74,1A9,9,0,0,0,63.44,248.27Z"/><path class="cls-2" d="M56.74,223.88a4.72,4.72,0,0,0,2.08,1.41,3.88,3.88,0,0,0,1.2.16,4.21,4.21,0,0,0,1.27-.19c1.71-.48,3.54-1.95,5.26-4.21l.64-.87.61-.95c.42-.64.79-1.35,1.19-2.07a41.8,41.8,0,0,0,2.09-4.74c.33-.84.6-1.72.89-2.59s.57-1.79.86-2.72c.59-1.84,1.09-3.75,1.54-5.63s.81-3.78,1.12-5.63.77-3.7,1.07-5.46.58-3.46.8-5.05L77.7,183c.11-.75.26-1.48.38-2.17.49-2.78.83-5.07,1.06-6.67l.35-2.51-1.07,2-2.79,5.33-1.86,3.64c-.66,1.3-1.23,2.65-1.89,4.06-1.3,2.81-2.71,5.81-4.18,8.75-.78,1.47-1.37,2.91-2.06,4.31l-1,2.08-1,2-3.81,7.37a42.61,42.61,0,0,0-2.51,6.39c-.14.53-.27,1-.37,1.55s-.17,1.05-.23,1.57A13.34,13.34,0,0,0,56.74,223.88Z"/><path class="cls-1" d="M56.74,223.88a3.65,3.65,0,0,0,1.23-.44,7.85,7.85,0,0,0,.8-.53,8.24,8.24,0,0,0,.91-.73,23.93,23.93,0,0,0,4.18-5.05A50.78,50.78,0,0,0,68,209a82.1,82.1,0,0,0,3.7-10c1-3.42,2.15-6.94,3-10.18s1.56-6.25,2.39-8.82l1.75-6.14.64-2.29-.78,2.18-2.1,5.87c-.42,1.22-1,2.57-1.41,4l-1.43,4.47c-.51,1.55-1.06,3.16-1.65,4.79s-1.24,3.3-1.77,4.92a96.09,96.09,0,0,1-3.8,9.45c-1.44,3-2.69,5.61-4,7.84C59.91,219.68,57.38,222.38,56.74,223.88Z"/><path class="cls-2" d="M48.47,178a4.92,4.92,0,0,0,3.79,2.7,7.09,7.09,0,0,0,2.52-.26,13,13,0,0,0,2.78-1.24,20.46,20.46,0,0,0,2.91-2.11c.49-.42,1-.84,1.47-1.33s1-1,1.45-1.5c1-1.06,1.89-2.2,2.82-3.41s1.92-2.49,2.81-3.82l.67-1,.64-1,1.23-2c.77-1.4,1.54-2.7,2.19-4.07.31-.67.71-1.33,1.05-2l1-1.93c.64-1.23,1.17-2.47,1.66-3.57.25-.55.48-1.08.68-1.6l.58-1.46.49-1.28c.15-.4.26-.77.41-1.1l.84-2.07-1.38,1.3-.72.69-.83.79-.92.9c-.32.33-.66.65-1,1-.73.67-1.49,1.43-2.34,2.16L71.93,152l-1.37,1.17c-.91.82-1.9,1.57-2.86,2.41l-1.5,1.19-.75.61-.76.59-5.76,4.69q-.7.56-1.37,1.15c-.45.39-.9.74-1.33,1.13-.86.79-1.7,1.51-2.47,2.3a25.69,25.69,0,0,0-2.14,2.38,14.8,14.8,0,0,0-1.71,2.53A12.79,12.79,0,0,0,48.47,178Z"/><path class="cls-1" d="M48.47,178c1.1.19,4-1,7.47-3.57.86-.67,1.78-1.35,2.68-2.18L60,171.06l1.47-1.36a71.56,71.56,0,0,0,5.78-6.23l.69-.83.67-.86L70,160.09l1.23-1.72c.44-.56.87-1.12,1.27-1.7l1.2-1.65,1.1-1.63c.72-1,1.35-2.08,1.94-3,.3-.46.57-.91.82-1.36l.72-1.24.62-1.08c.17-.34.37-.66.54-.94L80.45,144l-1.17,1.61c-.18.26-.4.54-.61.86l-.69,1-.79,1.13c-.27.4-.57.81-.89,1.23-.64.84-1.31,1.79-2.07,2.73L73.08,154l-1.25,1.49c-.83,1-1.79,2-2.68,3.09l-1.35,1.53-.68.78-.7.75c-1.86,2-3.84,3.94-5.77,5.72l-1.44,1.29c-.47.43-1,.81-1.42,1.21-.91.82-1.87,1.51-2.66,2.22C51.86,174.87,49.21,176.71,48.47,178Z"/><path class="cls-2" d="M50.7,148.46a4.59,4.59,0,0,0,1.58,1.73,4,4,0,0,0,1,.44,3.37,3.37,0,0,0,1.12.15,7.44,7.44,0,0,0,2.53-.56c.44-.2.9-.43,1.37-.7a11,11,0,0,0,1.43-.93A23,23,0,0,0,62.65,146c.47-.51,1-1,1.51-1.57l1.53-1.76a54.76,54.76,0,0,0,5.62-8.33l.63-1.12.66-1.15,1.26-2.28L75,127.51l.54-1.13.5-1.14L77,123c.29-.74.52-1.46.85-2.15.62-1.36,1.11-2.72,1.57-3.93l.33-.89.29-.87.52-1.59c.16-.5.31-1,.44-1.39l.33-1.2c.36-1.45.65-2.24.65-2.24l-.35.43c-.24.28-.55.7-.94,1.24l-.64.89-.78,1-.89,1.15-.48.62-.52.63c-.71.85-1.45,1.8-2.29,2.72l-1.26,1.45-1.36,1.46c-.24.25-.44.5-.65.76l-.67.74-1.35,1.52-1.41,1.48-.7.75-.73.72c-1.91,2-3.9,3.82-5.77,5.64-.45.44-.89.89-1.31,1.35l-1.28,1.3c-.82.91-1.64,1.71-2.38,2.6l-1.09,1.28q-.53.64-1,1.31a20.32,20.32,0,0,0-1.72,2.67c-.25.48-.48.93-.69,1.39a8,8,0,0,0-.51,1.45A13.94,13.94,0,0,0,50.7,148.46Z"/><path class="cls-1" d="M50.7,148.46a3,3,0,0,0,1.13-.22c.24-.08.5-.19.79-.31a6.34,6.34,0,0,0,.91-.47c.64-.39,1.37-.83,2.14-1.39l1.19-.94c.41-.33.88-.66,1.32-1.06.9-.79,1.85-1.59,2.8-2.57.47-.48,1-.94,1.44-1.46l1.44-1.6c1-1.11,1.91-2.27,2.84-3.49q.7-.91,1.37-1.86l1.42-1.93.71-1,.68-1,1.32-2,1.23-2,.59-1,.56-1,1.07-1.92c.34-.64.72-1.26,1.06-1.87.71-1.19,1.3-2.38,1.86-3.45l.41-.78.37-.77.67-1.42c.21-.45.41-.85.57-1.24l.45-1.08c.27-.65.48-1.16.65-1.49l.25-.52-.29.49c-.2.32-.44.8-.75,1.41l-.52,1c-.19.37-.41.75-.64,1.17L79,114.17l-.4.72-.45.73c-.61,1-1.25,2.11-2,3.21L75,120.56c-.42.57-.76,1.16-1.16,1.77l-.58.92-.62.9L71.41,126l-1.35,1.81-.69.92-.71.88c-.93,1.21-1.95,2.36-2.89,3.48s-1.86,2.21-2.8,3.25l-1.4,1.52c-.46.5-.94.94-1.39,1.41-.9,1-1.81,1.75-2.66,2.57-.42.42-.85.77-1.25,1.13L55.11,144c-.77.66-1.43,1.24-2,1.81-.29.29-.56.54-.81.77s-.48.47-.68.69A6.56,6.56,0,0,0,50.7,148.46Z"/><path class="cls-2" d="M49.43,123a3.82,3.82,0,0,0,1.53,1.6,3.56,3.56,0,0,0,1,.35,3.33,3.33,0,0,0,1.13,0,8.38,8.38,0,0,0,2.6-.78c.46-.24.94-.51,1.42-.82a13.07,13.07,0,0,0,1.49-1.06,27.48,27.48,0,0,0,3.06-2.85c.49-.56,1.07-1.09,1.61-1.71l1.62-1.9a64.75,64.75,0,0,0,6-8.86l.74-1.17.7-1.21,1.36-2.39,1.23-2.41.59-1.18.54-1.19c.37-.78.67-1.56,1.05-2.3l1-2.22c.67-1.41,1.21-2.82,1.71-4.07l.36-.92.32-.9.57-1.65c.17-.52.34-1,.48-1.44s.3-.85.43-1.22l.8-2.28L81.4,82.21l-.74.93c-.28.33-.54.7-.85,1.08l-.94,1.23-.51.67-.55.67c-.75.91-1.53,1.93-2.43,2.92L74,91.28l-1.44,1.57-.73.81c-.25.27-.51.52-.74.8l-1.43,1.65-1.49,1.61-.75.82-.77.79c-2,2.17-4.14,4.16-6.08,6.15q-.71.73-1.38,1.48l-1.35,1.43c-.87,1-1.74,1.87-2.53,2.82l-1.16,1.38q-.56.69-1.08,1.4a24.32,24.32,0,0,0-1.86,2.82c-.26.5-.48,1-.69,1.46a15.81,15.81,0,0,0-.54,1.5A14.87,14.87,0,0,0,49.43,123Z"/><path class="cls-1" d="M49.43,123a3.29,3.29,0,0,0,1.16-.32c.25-.1.52-.23.81-.38a7.47,7.47,0,0,0,.95-.55c.67-.45,1.42-1,2.23-1.6l1.25-1.06c.43-.37.88-.74,1.33-1.19.95-.87,2-1.75,3-2.81.5-.52,1-1,1.53-1.59l1.53-1.73c2.06-2.39,4-5,6-7.79l.75-1,.72-1.05,1.41-2.08,1.31-2.11.63-1,.6-1c.37-.7.84-1.35,1.24-2l1.15-2c.76-1.25,1.39-2.5,2-3.61l.44-.82.39-.81.72-1.48.62-1.3.56-1.1,1-2.08-1.17,2-.62,1-.7,1.23-.79,1.4-.43.76-.48.77c-.65,1-1.34,2.22-2.14,3.39l-1.21,1.83L74,94.69l-.63,1-.66,1-1.35,2-1.44,1.93-.73,1-.76.94c-1,1.29-2,2.53-3.09,3.73s-2,2.39-3,3.53l-1.48,1.65c-.49.55-1,1-1.47,1.54-1,1-1.92,1.92-2.81,2.81-.44.46-.89.84-1.32,1.24s-.84.79-1.2,1.17c-.75.73-1.45,1.37-2.06,2-.3.32-.59.59-.86.85s-.51.51-.72.75A8,8,0,0,0,49.43,123Z"/><path class="cls-2" d="M58.56,86.28a3,3,0,0,0,3.22,1.43,7.11,7.11,0,0,0,2.13-.83,15.7,15.7,0,0,0,2.35-1.72A26.2,26.2,0,0,0,68.7,82.7c.41-.47.82-.94,1.23-1.46s.79-1.06,1.24-1.59a60.24,60.24,0,0,0,4.9-7.18c.38-.63.74-1.27,1.09-1.92l1-1.92c.72-1.28,1.42-2.5,2-3.73l.9-1.8.81-1.74c.52-1.12,1-2.21,1.37-3.2s.77-1.9,1.12-2.68.62-1.48.84-2l.68-1.78-1.27,1.24c-.4.4-.88.88-1.45,1.41l-1.87,1.79c-2.59,2.68-6,6.07-9.56,9.32a108.78,108.78,0,0,0-9.16,10A17.47,17.47,0,0,0,60.91,78a20.47,20.47,0,0,0-1.26,2.66A15,15,0,0,0,58.56,86.28Z"/><path class="cls-1" d="M58.56,86.28c.92-.11,3.32-1.92,6.19-5,.71-.78,1.46-1.59,2.22-2.5.41-.44.82-.88,1.23-1.35L69.44,76c1.66-2,3.33-4.11,4.88-6.34L75.46,68c.38-.55.8-1.09,1.19-1.63.78-1.08,1.53-2.16,2.23-3.21,1.4-2.1,2.63-4.11,3.62-5.83.49-.86,1-1.64,1.42-2.33S84.72,53.7,85,53.2l.91-1.56-1,1.46c-.33.47-.73,1-1.21,1.66s-1,1.35-1.57,2.15c-1.1,1.6-2.42,3.44-3.89,5.38-.74,1-1.52,2-2.32,3s-1.68,2-2.44,3c-1.57,2.06-3.24,4-4.86,5.91l-1.21,1.38-1.19,1.32L65,78.13l-1,1.22C61.32,82.54,59.16,84.89,58.56,86.28Z"/><path class="cls-1" d="M178.7,378.57c-.09-3.24-1.27-9.22-3.25-17.2-.93-4-1.84-8.58-3-13.54l-.88-3.8c-.31-1.29-.62-2.61-.86-4L169,331.66c-.56-2.89-1.22-5.84-1.78-8.89l-1.54-9.38-.81-4.83c-.26-1.63-.6-3.26-.77-4.92l-1.3-10.1c-1.81-13.62-2.83-27.93-3.48-42.07a468.24,468.24,0,0,1,3.34-76.31l2-13.83c.32-2.05.57-4,.88-5.75l.93-4.83,1.74-9.14-2.3,9-1.21,4.78c-.41,1.75-.77,3.66-1.2,5.7-.83,4.08-1.81,8.69-2.81,13.75a416.82,416.82,0,0,0-6.62,76.73,404.65,404.65,0,0,0,2.63,42.69L158,304.52c.18,1.69.51,3.34.78,5l.84,4.9,1.66,9.5c.62,3.08,1.34,6.07,2,9l2,8.44c.3,1.36.67,2.68,1.06,4l1.11,3.8c1.48,4.94,2.78,9.47,4.17,13.38C174.53,370.27,177,375.89,178.7,378.57Z"/><path class="cls-2" d="M166.41,347.84a8.43,8.43,0,0,0-1.91-2.39,16.73,16.73,0,0,0-1.44-1.16l-1.68-1.19c-1.19-.83-2.56-1.62-4.06-2.46q-1.12-.66-2.35-1.32c-.82-.44-1.67-.86-2.53-1.36-1.74-1-3.6-1.88-5.51-3-1-.53-2-1-2.94-1.59l-3-1.71a138.88,138.88,0,0,1-12.21-7.81l-1.51-1.06-1.48-1.11-2.95-2.21L120,317.24l-1.4-1.13-1.36-1.16-2.65-2.27-2.4-2.29c-1.58-1.47-3-3-4.33-4.34l-1-1-.91-1-1.69-1.85c-.53-.58-1-1.12-1.48-1.64l-1.23-1.43-2.34-2.73,1.76,3.37.94,1.78c.35.64.75,1.31,1.17,2l1.35,2.31.74,1.25.8,1.27c1.12,1.72,2.25,3.64,3.67,5.51l2.19,2.92,2.38,2.93,1.24,1.5c.42.5.86,1,1.29,1.46l2.66,2.94,2.8,2.85L123.6,330l1.47,1.35a95.3,95.3,0,0,0,12.63,9.48q1.6,1,3.17,1.89c1,.6,2.1,1.12,3.13,1.65a57.37,57.37,0,0,0,6,2.62c1,.38,1.94.65,2.87.92s1.82.5,2.68.71a32,32,0,0,0,4.73.67,12.7,12.7,0,0,0,2,0A12,12,0,0,0,164,349,5.45,5.45,0,0,0,166.41,347.84Z"/><path class="cls-1" d="M166.41,347.84a18.58,18.58,0,0,0-2.13-1l-1.55-.6c-.56-.21-1.18-.43-1.83-.7-1.32-.53-2.79-1.08-4.35-1.74l-2.46-1.08c-.85-.38-1.74-.74-2.64-1.19-1.8-.87-3.73-1.75-5.7-2.83-1-.53-2-1-3-1.61l-3.08-1.78c-2.07-1.24-4.18-2.56-6.28-4s-4.09-2.92-6.09-4.51l-1.49-1.17-1.46-1.23L121.44,322l-2.77-2.55-1.36-1.26L116,316.88l-2.54-2.53c-.81-.86-1.61-1.71-2.33-2.54-1.49-1.63-2.81-3.3-4.05-4.81l-.91-1.11-.84-1.1-1.55-2c-.48-.64-.95-1.23-1.35-1.8l-1.11-1.57-2.11-3,2,3.11,1.06,1.64c.39.59.83,1.21,1.29,1.88l1.48,2.13.81,1.15.87,1.16c1.2,1.58,2.47,3.33,3.91,5,.71.87,1.51,1.76,2.29,2.66l2.49,2.66,1.28,1.36,1.33,1.33,2.73,2.68,2.86,2.59,1.45,1.29,1.48,1.23q1.48,1.25,3,2.43c1,.78,2.1,1.54,3.15,2.27,2.11,1.46,4.23,2.83,6.32,4.11l3.11,1.82c1,.59,2.05,1.1,3.05,1.63,2,1.07,4,1.93,5.79,2.76.92.43,1.82.76,2.69,1.11l2.52,1c1.66.56,3.18,1,4.52,1.38.67.2,1.3.34,1.88.46l1.6.32A15.4,15.4,0,0,0,166.41,347.84Z"/><path class="cls-2" d="M161.65,326.79a8.74,8.74,0,0,0-1.56-2.46,14.1,14.1,0,0,0-1.18-1.23c-.44-.41-.93-.81-1.44-1.25a41.84,41.84,0,0,0-3.58-2.57q-1-.68-2.09-1.35l-2.27-1.39-5-3L141.93,312l-2.73-1.65c-1.86-1.13-3.67-2.3-5.51-3.51s-3.69-2.47-5.51-3.78l-1.38-1-1.35-1-2.69-2-2.61-2-1.28-1-1.25-1-2.44-2c-.78-.68-1.57-1.34-2.27-2-1.46-1.28-2.77-2.58-4-3.76l-.91-.87-.85-.85L105.54,284l-1.39-1.4L103,281.37,100.79,279l1.64,3,.88,1.58,1.08,1.82,1.24,2.06.68,1.11.74,1.14,1.58,2.41c.58.83,1.2,1.67,1.84,2.51l2,2.62L114.6,300l1.11,1.35,1.16,1.33,2.39,2.67,2.51,2.6,1.28,1.29,1.31,1.25a94.12,94.12,0,0,0,11.27,8.88q1.43.94,2.84,1.82c.94.58,1.88,1.09,2.8,1.61a56.81,56.81,0,0,0,5.37,2.62c.86.38,1.71.69,2.52,1s1.61.54,2.4.76a28.33,28.33,0,0,0,4.32.81,12.08,12.08,0,0,0,1.83.06,10.55,10.55,0,0,0,1.59-.17A5.07,5.07,0,0,0,161.65,326.79Z"/><path class="cls-1" d="M161.65,326.79a16,16,0,0,0-1.89-1.07l-1.37-.67-1.59-.78-3.85-1.88-2.21-1.12c-.76-.39-1.56-.77-2.37-1.22-1.62-.88-3.35-1.78-5.12-2.83-.89-.52-1.8-1-2.71-1.58l-2.77-1.72c-1.86-1.19-3.76-2.44-5.65-3.76s-3.67-2.71-5.47-4.17l-1.35-1.08L124,303.81l-2.62-2.23-2.52-2.29-1.23-1.13L116.41,297l-2.32-2.26-2.17-2.24c-1.42-1.44-2.6-2.9-3.77-4.22l-.84-1-.78-1-1.44-1.78L103.81,283l-1-1.37-2-2.6,1.87,2.73,1,1.44,1.2,1.65,1.38,1.87.75,1,.81,1c1.12,1.39,2.24,2.94,3.65,4.45l2.11,2.36,2.27,2.38L117,299.2l1.21,1.2,2.48,2.41,2.58,2.35,1.31,1.17,1.34,1.13a100.05,100.05,0,0,0,11.17,8.24l2.79,1.75c.92.57,1.84,1.07,2.74,1.59,1.79,1,3.55,1.92,5.2,2.76.82.43,1.64.79,2.42,1.14l2.26,1c1.46.61,2.8,1.1,4,1.53.59.22,1.17.39,1.7.54l1.45.39A13.21,13.21,0,0,0,161.65,326.79Z"/><path class="cls-2" d="M158.78,306.7a11.26,11.26,0,0,0-3.34-5.08,35.76,35.76,0,0,0-3.07-2.7q-.86-.71-1.8-1.42l-2-1.46c-1.35-1-2.81-2-4.31-3.11l-4.69-3.34c-3.15-2.34-6.37-4.81-9.54-7.45l-1.19-1-1.17-1-2.33-2-2.26-2-1.11-1-1.08-1-2.11-2c-.67-.67-1.36-1.32-2-2-1.25-1.26-2.38-2.53-3.45-3.69l-.78-.85-.73-.83-1.35-1.54-1.19-1.37-1-1.19-1.88-2.25,1.27,2.87.68,1.51.84,1.75,1,2,.54,1.07.59,1.1,1.26,2.33c.47.8,1,1.62,1.5,2.44l1.62,2.55,1.77,2.59.92,1.32,1,1.31,2,2.64,2.1,2.59,1.07,1.29L125.7,289a82.2,82.2,0,0,0,9.67,9.05q1.25,1,2.47,1.89c.82.61,1.65,1.15,2.46,1.7a51.25,51.25,0,0,0,4.75,2.82c.76.42,1.52.76,2.25,1.08s1.45.61,2.14.87a22.7,22.7,0,0,0,3.89,1C155.72,307.85,157.6,307.6,158.78,306.7Z"/><path class="cls-1" d="M158.78,306.7c-1.45-1.27-5.89-3.6-11.6-7.29-1.42-.94-2.94-1.89-4.48-3-.77-.54-1.57-1.08-2.37-1.66L137.9,293c-1.61-1.23-3.29-2.52-4.89-3.86s-3.16-2.76-4.7-4.22l-1.16-1.08L126,282.68l-2.24-2.23-2.15-2.27-1.05-1.12-1-1.14-2-2.22-1.84-2.2c-1.21-1.41-2.18-2.83-3.16-4.12l-.7-.95-.65-.93-1.2-1.72-1-1.52-.86-1.32-1.63-2.5,1.51,2.62.8,1.38,1,1.6,1.13,1.81.61,1,.66,1c.92,1.35,1.84,2.85,3,4.34l1.77,2.31,1.9,2.35,1,1.2,1,1.18,2.1,2.39,2.19,2.35,1.11,1.17,1.14,1.14c1.53,1.53,3,3,4.69,4.41s3.29,2.73,4.92,4l2.43,1.82c.8.59,1.61,1.13,2.4,1.67,1.57,1.1,3.12,2,4.57,2.93.72.46,1.45.85,2.14,1.24l2,1.1c1.29.67,2.49,1.22,3.54,1.71A20.77,20.77,0,0,0,158.78,306.7Z"/><path class="cls-2" d="M156,286.85a9.15,9.15,0,0,0-2.37-4.84,25.37,25.37,0,0,0-2.37-2.49q-.67-.65-1.41-1.3l-1.54-1.32c-1.06-.91-2.22-1.8-3.4-2.77l-1.83-1.45-1.88-1.51c-2.58-2-5.1-4.2-7.62-6.49l-.95-.84-.93-.87-1.85-1.73-1.78-1.75-.88-.86-.85-.88-1.66-1.71-1.56-1.69c-1-1.08-2-2.18-2.83-3.16l-.64-.73c-.21-.24-.4-.48-.58-.71L118,248.44l-.93-1.17-.77-1-1.47-1.93.81,2.48.44,1.31.56,1.52c.19.54.45,1.12.7,1.73l.4.93.44,1c.6,1.3,1.25,2.74,2,4.19l1.16,2.25,1.29,2.29.67,1.17.71,1.16,1.48,2.35L127.1,269c.27.38.53.77.82,1.15l.9,1.11a69.45,69.45,0,0,0,7.64,8.14q1,.88,2,1.71c.66.55,1.33,1,2,1.53a38.16,38.16,0,0,0,3.88,2.54c.62.37,1.26.68,1.86,1s1.2.55,1.78.78a17.11,17.11,0,0,0,3.26.89A6,6,0,0,0,156,286.85Z"/><path class="cls-1" d="M156,286.85c-1.07-1.2-4.71-3.34-9.29-6.66-1.14-.84-2.36-1.7-3.59-2.68-.62-.49-1.26-1-1.89-1.48l-1.92-1.59a86.25,86.25,0,0,1-7.64-7.14l-.91-1-.88-1-1.74-2-1.66-2-.81-1-.78-1-1.51-1.94-1.4-1.91c-.92-1.23-1.73-2.46-2.5-3.57l-.56-.82-.52-.8c-.34-.52-.62-1-.9-1.48l-.78-1.31-.63-1.14-1.2-2.15,1.07,2.26.57,1.19.7,1.38c.25.49.52,1,.84,1.56l.48.85.52.87c.71,1.18,1.47,2.47,2.34,3.77l1.32,2,1.44,2.05.74,1.05.78,1,1.6,2.1,1.69,2.07.86,1,.89,1a81,81,0,0,0,7.66,7.47l1.94,1.63c.64.53,1.29,1,1.92,1.5,1.26,1,2.51,1.83,3.69,2.64C150.64,285,154.53,286.65,156,286.85Z"/><path class="cls-2" d="M154.07,262.33c.28-3.32-2.52-7.68-6.7-12.78-4-5.09-9.32-11-14.56-16.95-2.69-3-5.07-6-7.41-8.81s-4.45-5.52-6.27-7.85l-4.38-5.67c-1.06-1.38-1.62-2.16-1.62-2.16l.23.71.74,2c.32.87.72,1.93,1.2,3.12s1,2.55,1.63,4c1.22,2.91,2.72,6.27,4.44,9.79.83,1.76,1.83,3.56,2.87,5.36s2.12,3.61,3.24,5.38a119.37,119.37,0,0,0,7.05,10.09,69.3,69.3,0,0,0,7.52,8.06C147,261.08,151.36,263.34,154.07,262.33Z"/><path class="cls-1" d="M154.07,262.33c-.92-1.59-4.36-5.12-8.83-10-2.28-2.41-4.62-5.16-7.09-8.11s-5-6.1-7.47-9.32c-1.24-1.6-2.46-3.22-3.64-4.82s-2.21-3.2-3.25-4.75c-2.07-3.11-4-6.06-5.54-8.62-.8-1.27-1.5-2.47-2.14-3.52l-1.62-2.74c-.9-1.52-1.37-2.39-1.37-2.39l.3.65.93,1.85,1.48,2.86c.58,1.1,1.23,2.35,2,3.68a168.21,168.21,0,0,0,11.81,19c2.39,3.33,4.88,6.58,7.33,9.57,1.23,1.5,2.43,2.93,3.63,4.29s2.45,2.63,3.6,3.8C148.8,258.49,152.56,261.6,154.07,262.33Z"/><path class="cls-2" d="M153.22,237.37a8.44,8.44,0,0,0-1.75-4.74,24.19,24.19,0,0,0-2-2.42c-.72-.82-1.53-1.65-2.41-2.5s-1.84-1.7-2.84-2.59l-1.54-1.33-1.6-1.37c-2.16-1.85-4.46-3.74-6.71-5.71s-4.49-3.94-6.55-5.86-3.84-3.77-5.41-5.39c-.79-.8-1.47-1.58-2.11-2.24s-1.17-1.27-1.61-1.76l-1.4-1.55.76,2.16c.24.69.55,1.52.92,2.45s.79,2,1.29,3.13l.79,1.76.95,1.87c.66,1.27,1.39,2.6,2.18,4a78.93,78.93,0,0,0,5.36,8.09,59.69,59.69,0,0,0,6.34,7.23q.86.79,1.72,1.54c.57.49,1.15.94,1.72,1.39a34.4,34.4,0,0,0,3.37,2.32C147.12,238.44,151,239.15,153.22,237.37Z"/><path class="cls-1" d="M153.22,237.37c-.87-1.18-4-3.34-7.94-6.45-1-.79-2-1.59-3-2.49l-1.59-1.35L139,225.64c-2.17-2-4.42-4.08-6.55-6.31s-4.21-4.51-6.07-6.75c-.93-1.12-1.83-2.21-2.63-3.26s-1.52-2.06-2.18-3-1.25-1.83-1.78-2.6-1-1.47-1.33-2l-1.14-1.79,1,1.91c.32.61.72,1.35,1.2,2.18s1,1.78,1.62,2.78,1.26,2.08,2,3.21,1.6,2.3,2.49,3.49c1.77,2.38,3.74,4.85,5.84,7.19a91.62,91.62,0,0,0,6.48,6.61l1.63,1.47c.54.48,1.09.92,1.62,1.37,1.08.9,2.17,1.69,3.19,2.43C148.53,235.49,151.91,237.17,153.22,237.37Z"/><path class="cls-2" d="M155.51,214.06a6.77,6.77,0,0,0-.52-2.43,11.85,11.85,0,0,0-1.29-2.47,22.35,22.35,0,0,0-2-2.58c-.75-.9-1.62-1.77-2.54-2.72s-1.93-1.87-3-2.88l-1.6-1.5L143,197.94c-2.22-2.11-4.58-4.3-6.85-6.61l-.86-.85-.81-.87-1.61-1.73c-1-1.18-2.09-2.31-3.05-3.47l-1.44-1.69L127,181c-.89-1.07-1.68-2.14-2.44-3.11-.38-.48-.74-1-1.06-1.42l-.95-1.3-.83-1.15-.69-1-1.32-1.89.63,2.41.34,1.27.44,1.48.52,1.68c.18.6.39,1.21.61,1.85.45,1.27.93,2.67,1.51,4.09l.89,2.2,1,2.25c.66,1.54,1.58,3.05,2.42,4.62l1.38,2.29.71,1.14.75,1.11a62.71,62.71,0,0,0,6.48,8.2q.86.9,1.73,1.75c.57.56,1.17,1.07,1.75,1.58a31,31,0,0,0,3.49,2.66,27.3,27.3,0,0,0,3.39,1.89,16.24,16.24,0,0,0,3.08,1A5.75,5.75,0,0,0,155.51,214.06Z"/><path class="cls-1" d="M155.51,214.06a20.61,20.61,0,0,0-3-2.69c-1.43-1.17-3.25-2.62-5.27-4.35-1-.88-2.08-1.78-3.16-2.79-.54-.5-1.11-1-1.66-1.53l-1.68-1.63c-2.24-2.24-4.55-4.66-6.7-7.24l-.81-1-.79-1-1.55-2c-.94-1.33-1.9-2.61-2.75-3.92l-1.27-1.91-1.16-1.88c-.77-1.21-1.43-2.41-2.07-3.5-.32-.54-.62-1.07-.88-1.59l-.78-1.45-.68-1.28-.55-1.11-1-2.1.9,2.2.48,1.16.6,1.35.69,1.53c.24.54.51,1.1.79,1.67.57,1.15,1.17,2.42,1.88,3.7l1.08,2,1.18,2c.8,1.39,1.67,2.73,2.64,4.15l1.5,2.06.76,1,.79,1a85.48,85.48,0,0,0,6.63,7.56l1.7,1.67c.56.54,1.13,1,1.69,1.55,1.1,1,2.22,1.9,3.26,2.75C150.44,211.92,154.14,213.79,155.51,214.06Z"/><path class="cls-2" d="M157.11,196.25c.35-3.18-1.71-6.84-4.86-11.14-.78-1.08-1.66-2.17-2.54-3.33l-1.39-1.74-1.44-1.79c-1.92-2.43-4-5-6-7.58-3.83-5.14-7.38-10.61-9.94-14.89-.66-1.06-1.2-2.07-1.72-2.95s-.95-1.66-1.3-2.31l-1.12-2,.39,2.46c.13.79.29,1.74.51,2.82s.45,2.32.77,3.63.65,2.76,1.08,4.24l.65,2.3.75,2.36c.52,1.62,1.08,3.21,1.79,4.88l1.1,2.45.57,1.23.6,1.21a69.92,69.92,0,0,0,5.38,9.07q.73,1,1.47,2c.49.64,1,1.24,1.51,1.84a33.77,33.77,0,0,0,3.05,3.18,28.65,28.65,0,0,0,3.07,2.41,16.62,16.62,0,0,0,2.88,1.53A5.68,5.68,0,0,0,157.11,196.25Z"/><path class="cls-1" d="M157.11,196.25a20.77,20.77,0,0,0-2.59-3.16c-1.28-1.4-2.83-3.13-4.59-5.17-.87-1-1.81-2.1-2.74-3.27l-1.44-1.78L144.3,181c-1.93-2.56-3.91-5.31-5.74-8.17l-1.37-2.14L136,168.54c-.8-1.43-1.56-2.86-2.28-4.27-1.43-2.8-2.67-5.49-3.68-7.83-.52-1.16-.94-2.26-1.34-3.22s-.72-1.81-1-2.51l-.83-2.2.69,2.29c.22.73.49,1.62.83,2.62s.69,2.15,1.15,3.35c.88,2.44,2,5.25,3.29,8.18a74.21,74.21,0,0,0,4.61,9,98.31,98.31,0,0,0,5.62,8.47l1.46,1.91c.48.62,1,1.21,1.46,1.8,1,1.18,1.93,2.24,2.84,3.24a45,45,0,0,0,5,4.77A14.91,14.91,0,0,0,157.11,196.25Z"/><path class="cls-2" d="M159.62,172.68c1-2.95-.38-6.53-2.7-10.65s-5.73-8.79-8.68-13.56-6-9.64-8.08-13.45c-.54-.94-1-1.83-1.43-2.61s-.79-1.47-1.09-2c-.6-1.13-.9-1.77-.9-1.77l0,.56c0,.37.06.91.12,1.6s.15,1.54.28,2.49.25,2,.45,3.22c.37,2.35.88,5.07,1.57,7.95.34,1.44.73,2.91,1.17,4.39q.33,1.11.69,2.22c.25.74.55,1.49.84,2.22a65.65,65.65,0,0,0,4,8.41q.56,1,1.12,1.88c.38.61.77,1.18,1.16,1.75a32.88,32.88,0,0,0,2.39,3.06C153.74,172,157.07,173.75,159.62,172.68Z"/><path class="cls-1" d="M159.62,172.68c-.43-1.34-2.58-4.2-5.26-8.14-1.35-2-2.83-4.19-4.33-6.59-.75-1.2-1.5-2.44-2.25-3.71l-1.11-1.92-1-1.94a140,140,0,0,1-6.52-14.76c-.4-1-.73-2-1-2.85s-.56-1.6-.76-2.22-.36-1.1-.45-1.43l-.15-.5.11.52c.07.34.18.84.34,1.48s.35,1.42.6,2.31.51,1.9.84,3a116.8,116.8,0,0,0,5.75,15.42c1.28,2.73,2.79,5.39,4.26,7.86l1.12,1.8c.37.59.76,1.15,1.12,1.71.73,1.12,1.49,2.14,2.2,3.11C155.95,169.64,158.49,172.14,159.62,172.68Z"/><path class="cls-2" d="M165.48,151.73a7.76,7.76,0,0,0,1.43-4.81,19.59,19.59,0,0,0-.27-3.25,31.68,31.68,0,0,0-.86-3.65c-.38-1.26-.85-2.6-1.38-3.92-.25-.66-.5-1.34-.79-2l-.91-2a67.56,67.56,0,0,0-4.46-8l-.62-1-.64-.93-1.29-1.82c-.89-1.17-1.74-2.33-2.63-3.38l-1.29-1.56L150.49,114c-.81-.94-1.65-1.77-2.36-2.53s-1.42-1.42-2-2-1.14-1.08-1.59-1.48l-1.41-1.24.75,1.9c.24.6.54,1.32.86,2.17s.77,1.78,1.18,2.83c1.72,4.17,3.89,9.69,5.93,15.26,1,2.76,2,5.56,3.19,8.19q.41,1,.83,1.94l.82,1.87c.56,1.2,1.09,2.37,1.65,3.43C160.53,148.6,162.76,151.57,165.48,151.73Z"/><path class="cls-1" d="M165.48,151.73c0-1.45-.88-5.25-2.69-10-.46-1.18-.94-2.45-1.5-3.73-.28-.64-.55-1.31-.85-2s-.58-1.32-.87-2c-1.18-2.66-2.48-5.41-3.9-8a124.49,124.49,0,0,0-8.45-13.67L145.56,110c-.49-.69-.93-1.28-1.3-1.76l-1.14-1.5,1,1.63c.33.52.72,1.15,1.15,1.89l1.51,2.5c2.23,3.72,5.07,8.8,7.62,14.19,1.3,2.68,2.5,5.44,3.63,8.08l.89,2,.84,1.93c.56,1.26,1.05,2.49,1.55,3.63C163.25,147.18,164.6,150.71,165.48,151.73Z"/><path class="cls-2" d="M169.94,139.66c2.59-.82,5.14-4.71,7-10.21a80.38,80.38,0,0,0,2.43-9.2c.79-3.28,1.44-6.75,1.93-10.21.25-1.73.46-3.45.64-5.14l.25-2.51.3-2.41c.36-3.17.6-6.12.76-8.63.09-1.26.12-2.41.17-3.43s.07-1.91.08-2.64l0-2.29-3,7.92L177.47,99c-.6,1.48-1.09,3.06-1.62,4.66l-1.61,4.88c-1.07,3.28-2.15,6.58-3.11,9.77s-1.54,6.31-2,9.12a36.56,36.56,0,0,0-.68,7.42,11.39,11.39,0,0,0,.41,2.78A5.5,5.5,0,0,0,169.94,139.66Z"/><path class="cls-1" d="M169.94,139.66a62.39,62.39,0,0,0,3.84-11c.78-2.77,1.5-5.9,2.28-9.17s1.68-6.65,2.4-10c.37-1.69.71-3.38,1-5l.46-2.46.52-2.36c.67-3.09,1.24-6,1.69-8.43l.59-3.36.42-2.58.35-2.24L183,85.19l-.59,2.56-.8,3.32c-.6,2.43-1.32,5.28-2.15,8.34-.2.77-.43,1.54-.62,2.34l-.57,2.43-1.22,5c-.84,3.35-1.74,6.72-2.64,9.94l-2.2,9.15c-.67,2.79-1.27,5.24-1.7,7.2-.21,1-.39,1.83-.5,2.54A10.06,10.06,0,0,0,169.94,139.66Z"/><path class="cls-2" d="M174.27,348.38a5.44,5.44,0,0,0,2.1,1.41,8.05,8.05,0,0,0,1.42.4,9.69,9.69,0,0,0,1.65.19,21.05,21.05,0,0,0,8.24-1.58l1.15-.46,1.16-.53c.79-.35,1.56-.78,2.35-1.21a43,43,0,0,0,4.67-3.06c.78-.56,1.51-1.19,2.27-1.8s1.48-1.28,2.18-2a52.45,52.45,0,0,0,4-4.28c.63-.74,1.23-1.5,1.81-2.27s1.18-1.56,1.74-2.33c1.1-1.58,2.12-3.14,3-4.69a53.46,53.46,0,0,0,4-8.63c.46-1.28.83-2.46,1.12-3.5s.59-2,.78-2.73.31-1.35.41-1.76l.13-.62-.33.54c-.22.35-.51.88-.93,1.52-.8,1.3-2.09,3.15-3.58,5.22A68.43,68.43,0,0,1,208,323c-1.11,1.18-2.31,2.35-3.56,3.51s-2.56,2.3-3.92,3.38-2.73,2.16-4.15,3.14c-.69.51-1.41,1-2.11,1.46s-1.41.94-2.12,1.37c-1.4.9-2.8,1.71-4.12,2.5-.67.37-1.32.77-2,1.12l-1,.54-.94.51a74.28,74.28,0,0,0-6.39,3.82c-.43.32-.83.62-1.2.93a11.34,11.34,0,0,0-1,1A5.87,5.87,0,0,0,174.27,348.38Z"/><path class="cls-1" d="M174.27,348.38a9.81,9.81,0,0,0,1.78,0c.38,0,.8-.09,1.26-.15s1-.14,1.47-.26a37.33,37.33,0,0,0,7.5-2.47l1.07-.48,1.08-.53c.73-.35,1.45-.77,2.2-1.17,1.47-.85,3-1.77,4.43-2.83.74-.51,1.46-1.07,2.19-1.62s1.44-1.14,2.13-1.76c1.42-1.2,2.72-2.49,4.07-3.83s2.57-2.74,3.75-4.13,2.25-2.82,3.22-4.22a58.63,58.63,0,0,0,4.67-7.89c.59-1.19,1.05-2.28,1.48-3.26s.81-1.85,1.08-2.57.47-1.28.62-1.66l.21-.59-.25.57c-.17.37-.39.93-.72,1.62-.65,1.39-1.66,3.36-2.9,5.63a61.67,61.67,0,0,1-5,7.52c-1,1.33-2.15,2.66-3.33,4s-2.46,2.63-3.81,3.88-2.74,2.49-4.14,3.61c-.69.58-1.41,1.11-2.11,1.66s-1.42,1.06-2.15,1.53c-1.43,1-2.89,1.88-4.31,2.71-.72.39-1.42.81-2.12,1.15l-1,.54-1,.49a70.48,70.48,0,0,1-7.13,2.91c-.49.19-1,.34-1.38.48l-1.17.42A9.84,9.84,0,0,0,174.27,348.38Z"/><path class="cls-2" d="M171.08,327.55a5.11,5.11,0,0,0,1.66,1.72,6.63,6.63,0,0,0,1.21.6,7.36,7.36,0,0,0,1.44.42,15.21,15.21,0,0,0,7.42-.61l1-.34,1-.41c.71-.27,1.39-.63,2.1-1a32.62,32.62,0,0,0,4.12-2.58c.68-.48,1.32-1,2-1.54s1.28-1.1,1.89-1.69a45.19,45.19,0,0,0,3.46-3.68c1.06-1.26,2.13-2.59,3.1-3.89s1.86-2.6,2.68-3.87c1.65-2.52,3-4.9,4.11-6.92s2-3.71,2.56-4.88c.28-.59.54-1.05.71-1.37l.26-.48-1.6,1.35L206.2,302c-3.36,3-7.84,7.11-12.59,10.7-1.19.89-2.38,1.77-3.59,2.57-.59.42-1.21.79-1.8,1.19s-1.19.76-1.79,1.11c-1.18.73-2.36,1.37-3.48,2-.57.29-1.12.62-1.66.88l-.8.43-.78.39c-2,1.05-3.87,2-5.36,2.91-.37.25-.72.49-1.05.74a10.1,10.1,0,0,0-.91.8A5.68,5.68,0,0,0,171.08,327.55Z"/><path class="cls-1" d="M171.08,327.55a7.48,7.48,0,0,0,1.52.3c.33,0,.69,0,1.09,0a10.56,10.56,0,0,0,1.29,0,23.64,23.64,0,0,0,6.59-1.53l.94-.36.94-.42c.64-.27,1.27-.61,1.92-.93a39.82,39.82,0,0,0,3.84-2.34c.64-.42,1.26-.9,1.89-1.36s1.24-1,1.83-1.49c1.2-1,2.41-2.13,3.56-3.25a107.58,107.58,0,0,0,11-13.1l3.16-4.37c.75-1.05,1.22-1.65,1.22-1.65l-1.35,1.55-3.46,4.12A127.64,127.64,0,0,1,195.53,315c-1.17,1-2.36,2.08-3.59,3-.6.49-1.25.94-1.84,1.4s-1.22.88-1.85,1.28c-1.23.83-2.48,1.55-3.7,2.22-.62.31-1.22.65-1.83.91l-.89.42-.88.37C176.29,326.62,172.4,327,171.08,327.55Z"/><path class="cls-2" d="M165.25,305.73a5.49,5.49,0,0,0,2.07,1.49,8.24,8.24,0,0,0,1.43.45,9.92,9.92,0,0,0,1.66.25,21.68,21.68,0,0,0,8.42-1.28l1.19-.41,1.2-.49c.81-.32,1.61-.73,2.43-1.12a43.63,43.63,0,0,0,4.85-2.89c.81-.53,1.62-1.14,2.42-1.73s1.59-1.23,2.35-1.9a55.93,55.93,0,0,0,4.4-4.17c1.39-1.45,2.67-3,3.86-4.5s2.26-3.07,3.21-4.6a72.51,72.51,0,0,0,4.62-8.58,49.14,49.14,0,0,0,2.29-6.25c.23-.75.36-1.36.47-1.76l.15-.62-.35.53c-.23.34-.54.87-1,1.5-.86,1.29-2.17,3.09-3.86,5.14a72.16,72.16,0,0,1-6.24,6.65c-1.23,1.16-2.48,2.28-3.78,3.41s-2.68,2.21-4.1,3.25-2.85,2.07-4.33,3c-.72.49-1.47.93-2.2,1.39s-1.46.89-2.2,1.3c-1.46.86-2.91,1.62-4.31,2.36-.71.35-1.39.73-2.08,1.06l-1,.51-1,.48c-2.59,1.3-4.91,2.44-6.76,3.61-.46.31-.89.59-1.29.9a12.26,12.26,0,0,0-1.09.94A5.69,5.69,0,0,0,165.25,305.73Z"/><path class="cls-1" d="M165.25,305.73a10.11,10.11,0,0,0,1.81.08c.39,0,.81-.06,1.28-.1s1-.11,1.5-.21a38.34,38.34,0,0,0,7.71-2.2l1.11-.44,1.13-.5c.77-.32,1.53-.72,2.31-1.1,1.55-.8,3.14-1.68,4.69-2.69.79-.48,1.56-1,2.34-1.56s1.55-1.1,2.29-1.7c1.52-1.16,3-2.42,4.37-3.71s2.71-2.65,4-4,2.38-2.75,3.41-4.12a70,70,0,0,0,5.29-7.81,55.31,55.31,0,0,0,2.92-5.81c.32-.71.52-1.28.68-1.66l.23-.59-.27.57c-.18.37-.42.92-.78,1.61a59,59,0,0,1-3.23,5.59,67.75,67.75,0,0,1-5.62,7.43c-1.08,1.3-2.27,2.59-3.52,3.89s-2.59,2.55-4,3.76-2.85,2.39-4.36,3.47c-.74.56-1.51,1.07-2.26,1.6s-1.52,1-2.29,1.47c-1.52,1-3.07,1.79-4.57,2.58-.76.37-1.49.76-2.23,1.09l-1.09.5-1.07.46a74,74,0,0,1-7.43,2.67c-.51.17-1,.3-1.43.43l-1.21.38A10.08,10.08,0,0,0,165.25,305.73Z"/><path class="cls-2" d="M164.16,281.64a6.41,6.41,0,0,0,4.87,1.22,19.43,19.43,0,0,0,3.42-.65q.91-.27,1.88-.62c.65-.24,1.32-.48,2-.79a43.89,43.89,0,0,0,4.15-2.09c.7-.41,1.43-.81,2.13-1.26l2.14-1.4A76.7,76.7,0,0,0,193,269.5l1-.88.94-.91,1.84-1.8,1.81-1.83.88-.9.83-.91,1.6-1.76,1.47-1.72c1-1.1,1.79-2.2,2.56-3.18l.56-.72.52-.71.94-1.3.81-1.14.65-1,1.22-1.86-1.79,1.3-.94.69-1.12.79-1.28.91-.69.49-.74.5c-1,.68-2.07,1.45-3.25,2.2L199,257l-1.9,1.21-1,.63-1,.62-2,1.27-2.1,1.25-1.06.64-1.08.62c-2.84,1.7-5.82,3.32-8.51,4.91l-4,2.33c-1.27.79-2.52,1.5-3.66,2.26L171,273.8q-.8.55-1.53,1.11a22.85,22.85,0,0,0-2.6,2.19A8.54,8.54,0,0,0,164.16,281.64Z"/><path class="cls-1" d="M164.16,281.64a17,17,0,0,0,4-1.08c.92-.36,2-.76,3.09-1.26l1.74-.82c.6-.29,1.23-.57,1.86-.91,1.26-.67,2.6-1.35,4-2.16.68-.4,1.38-.78,2.07-1.21l2.09-1.31c2.79-1.81,5.64-3.78,8.31-5.89l1-.78,1-.8,2-1.59,1.9-1.61.93-.79.89-.8,1.72-1.54,1.6-1.51c1-1,2-1.93,2.84-2.79l.63-.63.59-.62,1.07-1.14.94-1,.77-.87,1.45-1.63-1.56,1.52-.82.81-1,.93-1.14,1.07-.62.58-.67.59c-.92.8-1.89,1.7-3,2.6l-1.66,1.41-1.78,1.43-.92.74-1,.73-1.95,1.49-2,1.48-1,.75-1.05.73c-2.75,2-5.57,3.83-8.35,5.57L180,272.58c-.68.42-1.37.8-2,1.19-1.32.8-2.63,1.49-3.86,2.19-.61.36-1.22.66-1.8,1l-1.67.91c-1.08.57-2.07,1.08-2.93,1.57A20.8,20.8,0,0,0,164.16,281.64Z"/><path class="cls-2" d="M161.06,255.76a4.69,4.69,0,0,0,2,1.18,7.85,7.85,0,0,0,1.31.29,7.66,7.66,0,0,0,1.5.07,18.59,18.59,0,0,0,3.46-.49q.92-.24,1.91-.57a19.79,19.79,0,0,0,2-.74,37.08,37.08,0,0,0,4.19-2.06c.71-.41,1.44-.8,2.14-1.27l2.13-1.43a71.08,71.08,0,0,0,8.29-6.88l1-.94.93-1,1.8-1.93,1.66-2c.27-.33.54-.64.8-1l.74-1,1.42-1.9,1.26-1.87c.83-1.19,1.6-2.39,2.29-3.46l.5-.79.45-.77.81-1.42c.25-.45.49-.85.69-1.24l.54-1.08,1-2-1.62,1.54-.84.82c-.31.3-.66.6-1,.93l-1.17,1.06-.63.57-.69.58c-.94.78-1.92,1.67-3,2.52l-1.69,1.35c-.6.44-1.2.89-1.78,1.35l-.89.7-.93.68-1.89,1.4-2,1.36-1,.69-1,.66c-2.69,1.82-5.51,3.48-8.19,5.09q-1,.58-2,1.18l-2,1.12c-1.26.78-2.52,1.44-3.67,2.17-.57.38-1.15.69-1.69,1s-1.07.69-1.56,1a22.66,22.66,0,0,0-2.61,2c-.37.36-.73.69-1,1a9.35,9.35,0,0,0-.85,1.06A6.39,6.39,0,0,0,161.06,255.76Z"/><path class="cls-1" d="M161.06,255.76a8.15,8.15,0,0,0,1.6-.19l1.13-.25a12.84,12.84,0,0,0,1.32-.37c.93-.31,2-.66,3.12-1.11l1.75-.75c.6-.27,1.24-.53,1.86-.86,1.26-.64,2.61-1.29,3.94-2.1.67-.4,1.36-.77,2.05-1.21l2.11-1.33a81,81,0,0,0,8.29-6.17l1-.83,1-.86,1.87-1.71,1.75-1.74c.29-.29.58-.56.85-.85l.8-.87,1.55-1.68c.49-.57.93-1.13,1.43-1.67,1-1.06,1.81-2.13,2.61-3.09l.58-.7.52-.69,1-1.28c.3-.4.58-.76.83-1.12l.66-1,1.24-1.83-1.36,1.73-.72.92c-.26.33-.58.68-.89,1.06l-1,1.2-.56.65-.61.66c-.84.9-1.72,1.91-2.75,2.9-.5.5-1,1-1.53,1.56l-1.62,1.58-.83.82-.88.8-1.8,1.63-1.9,1.59-1,.81-1,.77a96.4,96.4,0,0,1-8.26,5.81l-2.08,1.28c-.68.42-1.38.79-2.05,1.18-1.35.8-2.63,1.45-3.85,2.12-.6.35-1.21.62-1.79.92l-1.68.85c-1.08.52-2.08,1-3,1.42-.43.23-.85.41-1.23.59l-1,.52A8.91,8.91,0,0,0,161.06,255.76Z"/><path class="cls-2" d="M162,238.65a4.24,4.24,0,0,0,1.69,1.3,5.15,5.15,0,0,0,1.11.33,6,6,0,0,0,1.27.11,13.42,13.42,0,0,0,6.15-1.81l.83-.46.82-.52c.56-.35,1.09-.76,1.65-1.17a31.6,31.6,0,0,0,3.17-2.83c.52-.51,1-1.06,1.49-1.6s1-1.12,1.45-1.71c1-1.16,1.87-2.39,2.71-3.61a61.93,61.93,0,0,0,4.25-7.35c.59-1.18,1.12-2.33,1.6-3.42s.9-2.12,1.35-3.06c.85-1.89,1.51-3.46,2-4.57l.69-1.73-1.33,1.25-3.48,3.39c-3,2.82-6.48,6.69-10.33,10.25-1,.89-1.91,1.78-2.87,2.61l-1.43,1.25-1.42,1.19c-1.88,1.57-3.68,3-5.29,4.3a33.86,33.86,0,0,0-4,3.79c-.26.32-.51.63-.73,1a9.7,9.7,0,0,0-.6,1A6.62,6.62,0,0,0,162,238.65Z"/><path class="cls-1" d="M162,238.65a5.29,5.29,0,0,0,1.3-.07c.28,0,.58-.12.91-.2a10.16,10.16,0,0,0,1.06-.31,24.33,24.33,0,0,0,5.27-2.59,39.12,39.12,0,0,0,5.94-4.7,55.59,55.59,0,0,0,5.75-6.18c1.77-2.2,3.36-4.45,4.75-6.58s2.57-4.14,3.7-5.83l2.57-4.09.95-1.54L193.08,208l-2.87,3.86c-.59.8-1.28,1.67-1.94,2.6s-1.37,1.9-2.13,2.91c-1.51,2-3.19,4.13-5,6.19a66.26,66.26,0,0,1-5.74,5.81,62.48,62.48,0,0,1-5.72,4.57C166.05,236.48,163,237.78,162,238.65Z"/><path class="cls-2" d="M162.57,207.08a4.91,4.91,0,0,0,3.4,2.29,10.36,10.36,0,0,0,2.53.15,17.13,17.13,0,0,0,2.91-.48,23.08,23.08,0,0,0,3.16-1.06c.54-.23,1.09-.45,1.63-.72l1.64-.85a41.1,41.1,0,0,0,6.32-4.32l.74-.61.71-.64,1.39-1.27c.88-.89,1.74-1.73,2.51-2.62.37-.44.79-.86,1.17-1.28l1.08-1.27c.7-.81,1.3-1.63,1.86-2.36.28-.37.54-.72.77-1.07l.67-1c.21-.31.4-.59.57-.86l.46-.75.84-1.42-1.38.82-.72.44-.86.49-1,.56c-.34.2-.7.4-1.09.6-.77.4-1.57.87-2.46,1.3l-1.35.69-1.42.69c-1,.49-2,.91-3,1.4l-1.55.68-.78.35-.79.33c-2.06.92-4.13,1.76-6.09,2.61q-.74.31-1.46.63l-1.41.62c-.91.44-1.81.83-2.63,1.29a22.86,22.86,0,0,0-2.31,1.36,12.56,12.56,0,0,0-1.91,1.51A7.08,7.08,0,0,0,162.57,207.08Z"/><path class="cls-1" d="M162.57,207.08c1.07.27,4.09-.12,7.87-1.46.94-.34,1.94-.69,2.95-1.15.51-.22,1-.43,1.54-.68l1.56-.76a58.22,58.22,0,0,0,6.23-3.64l.75-.5.73-.52,1.44-1c.91-.74,1.84-1.41,2.72-2.13l1.28-1,1.18-1c.78-.66,1.46-1.34,2.1-1.94.32-.3.62-.59.9-.88l.79-.81.69-.71.56-.62,1.05-1.18L195.78,188l-.61.56-.74.64-.85.73c-.3.26-.62.52-1,.79-.68.54-1.41,1.15-2.22,1.73l-1.24.93-1.33.92c-.89.65-1.88,1.24-2.84,1.89l-1.46.92-.74.47L182,198c-2,1.22-4.13,2.3-6.18,3.3l-1.53.72c-.5.24-1,.44-1.5.66-1,.45-1.94.81-2.84,1.19C166.35,205.39,163.49,206.28,162.57,207.08Z"/><path class="cls-2" d="M167.18,187.42a4.13,4.13,0,0,0,1.48,1.32,5.16,5.16,0,0,0,1,.39,4.88,4.88,0,0,0,1.1.21,10.32,10.32,0,0,0,2.55-.14q.68-.14,1.4-.35a12,12,0,0,0,1.47-.5,21.72,21.72,0,0,0,3-1.5c.51-.31,1-.6,1.54-1l1.52-1.1a35.63,35.63,0,0,0,5.6-5.4l.63-.74.63-.77,1.21-1.53,1.09-1.56c.17-.26.35-.51.52-.77l.48-.78.9-1.51.77-1.48c.51-.95.9-1.9,1.27-2.74l.27-.62.23-.61.4-1.12c.12-.35.24-.67.33-1l.24-.85c.27-1,.47-1.59.47-1.59l-.3.3c-.2.19-.48.48-.83.85l-.57.61c-.21.22-.45.45-.7.69l-.8.78-.43.42-.47.42c-.64.57-1.3,1.22-2.07,1.83l-1.14,1-1.23,1-.62.5-.65.48-1.32,1-1.37,1-.69.48-.71.46c-1.85,1.27-3.79,2.4-5.61,3.53-.45.27-.88.55-1.31.83l-1.27.8c-.82.56-1.63,1-2.37,1.6l-1.09.79q-.52.4-1,.82a13,13,0,0,0-1.71,1.68c-.24.31-.48.59-.68.89a7.46,7.46,0,0,0-.55.94A6.62,6.62,0,0,0,167.18,187.42Z"/><path class="cls-1" d="M167.18,187.42a4.19,4.19,0,0,0,1.14,0l.8-.14a7.68,7.68,0,0,0,.93-.23c.66-.21,1.41-.44,2.21-.75l1.24-.53c.43-.19.88-.37,1.32-.62.89-.47,1.84-.94,2.78-1.54.47-.29,1-.57,1.44-.9l1.44-1a56.49,56.49,0,0,0,5.58-4.66l.68-.63.65-.65,1.27-1.3,1.18-1.33.57-.65.54-.67,1-1.29.92-1.28c.61-.81,1.11-1.64,1.59-2.38l.35-.54.31-.53.56-1c.17-.31.34-.59.48-.87l.37-.75c.44-.91.73-1.41.73-1.41s-.35.47-.87,1.33l-.44.71c-.16.26-.36.52-.56.81l-.64.92-.35.5-.39.5c-.53.68-1.08,1.45-1.75,2.2l-1,1.18-1.1,1.18-.56.61-.6.6-1.23,1.21-1.31,1.18-.66.6-.69.57c-.9.78-1.87,1.52-2.8,2.24s-1.86,1.4-2.79,2.05l-1.39.94c-.46.31-.93.58-1.38.86-.9.59-1.8,1.06-2.64,1.56-.42.26-.84.46-1.24.67l-1.16.63c-.75.39-1.44.72-2,1.06-.3.17-.59.31-.85.45l-.72.4A5.11,5.11,0,0,0,167.18,187.42Z"/><path class="cls-2" d="M165.94,170a4,4,0,0,0,1.56,1.19,5.08,5.08,0,0,0,1,.31,4.87,4.87,0,0,0,1.12.11,10.6,10.6,0,0,0,2.56-.36q.68-.2,1.4-.47a12.37,12.37,0,0,0,1.46-.63,22.47,22.47,0,0,0,3-1.78c.49-.35,1-.7,1.5-1.1L181,166a37.25,37.25,0,0,0,5.29-5.95l.62-.8.58-.83,1.11-1.64,1-1.67c.16-.28.32-.54.47-.82l.42-.83.8-1.61.67-1.57c.45-1,.77-2,1.08-2.89l.22-.66.18-.64.32-1.18c.1-.37.2-.71.26-1l.22-.88.39-1.64-1.09,1.27-.56.67-.66.77-.74.87-.4.47-.44.47c-.6.64-1.22,1.36-1.94,2L187.69,149l-1.17,1.09-.59.56-.62.55-1.26,1.11-1.32,1.08-.66.55-.68.52c-1.77,1.44-3.67,2.76-5.4,4.06q-.65.47-1.26,1l-1.23.92c-.79.64-1.58,1.2-2.29,1.82l-1,.89q-.5.44-1,.91a13.88,13.88,0,0,0-1.62,1.84c-.23.33-.45.64-.64,1a7.84,7.84,0,0,0-.5,1A6.82,6.82,0,0,0,165.94,170Z"/><path class="cls-1" d="M165.94,170a4.29,4.29,0,0,0,1.15-.14l.8-.21a7.84,7.84,0,0,0,.93-.31c.65-.26,1.39-.56,2.18-.95l1.22-.65c.42-.23.86-.45,1.29-.74.87-.55,1.8-1.11,2.7-1.79.46-.34.93-.66,1.39-1L179,163a64.35,64.35,0,0,0,5.33-5.2l.64-.69.61-.72,1.19-1.42,1.1-1.45.53-.71.49-.72.95-1.4.83-1.38c.56-.88,1-1.77,1.42-2.56l.31-.58.27-.57.49-1.05.42-.92.36-.79.67-1.49-.81,1.42-.43.75-.5.87-.57,1L192,146l-.35.55c-.49.74-1,1.57-1.6,2.39l-.91,1.28-1,1.3-.52.67-.56.66-1.15,1.34-1.23,1.31-.63.66-.66.64c-.86.87-1.77,1.7-2.69,2.5s-1.78,1.58-2.67,2.32l-1.34,1.07c-.44.35-.9.66-1.34,1-.87.67-1.75,1.23-2.56,1.8-.4.29-.82.53-1.21.79l-1.13.73c-.73.45-1.41.85-2,1.24-.29.2-.57.36-.83.53l-.7.47A5.41,5.41,0,0,0,165.94,170Z"/><path class="cls-2" d="M171.88,145.15a4.14,4.14,0,0,0,3.35,1.08,7.18,7.18,0,0,0,2-.53,11.83,11.83,0,0,0,2-1.16,16.56,16.56,0,0,0,2-1.69c.33-.32.67-.65,1-1l1-1.11a31.61,31.61,0,0,0,3.54-5.06c.26-.45.51-.9.74-1.36l.67-1.36c.41-.93.81-1.81,1.13-2.71l.47-1.3.39-1.26c.26-.81.44-1.6.62-2.32l.45-2c.14-.57.23-1.08.31-1.5l.22-1.3-.91.93c-.28.3-.63.65-1,1.05l-1.35,1.33c-1.9,2-4.46,4.43-7.09,6.78a74.1,74.1,0,0,0-7.14,7,11,11,0,0,0-1.23,1.76,9.63,9.63,0,0,0-.83,1.82A7.07,7.07,0,0,0,171.88,145.15Z"/><path class="cls-1" d="M171.88,145.15c.88-.06,2.95-1.25,5.28-3.35.58-.53,1.19-1.08,1.79-1.71.32-.31.65-.61,1-.94l1-1a48.83,48.83,0,0,0,3.66-4.45,51.92,51.92,0,0,0,5.25-8.91l.81-1.71c.25-.5.44-1,.6-1.32l.5-1.15-.63,1.08c-.2.34-.44.76-.75,1.23l-1,1.58a65.44,65.44,0,0,1-5.86,8.21c-1.18,1.45-2.47,2.83-3.72,4.14l-.94,1-.93.91c-.61.61-1.21,1.16-1.73,1.71C174,142.6,172.26,144.19,171.88,145.15Z"/></g></g></svg>