    <svg
      xmlns="http://www.w3.org/2000/svg"
      fillRule="evenodd"
      strokeLinecap="round"
      strokeLinejoin="round"
      strokeMiterlimit="1.5"
      clipRule="evenodd"
      viewBox="0 0 800 600"
    >
      <path
        id="trail"
        fill="none"
        stroke="#6A6161"
        strokeDasharray="5,5,0,0"
        strokeWidth="1"
        d="M60.845,97.261C52.736,203.515 212.643,326.983 224.166,388.057C226.303,399.382 224.759,413.285 217.136,424.733C210.448,434.774 203.692,439.566 195.622,443.741C189.638,446.836 174.645,450.427 164.676,449.079C154.066,447.644 143.111,438.716 137.562,427.196C130.682,412.912 131.86,397.982 137.562,388.057C144.952,375.192 156.816,366.807 171.703,365.581C180.676,364.842 192.738,368.427 199.95,370.324C232.968,379.01 321.116,438.448 334.513,467.886C340.892,481.9 336.089,502.514 326.447,513.243C322.984,517.096 315.701,523.5 307.305,526.044C298.276,528.779 288.024,527.465 281.74,526.044C269.614,523.302 255.396,509.054 253.691,496.79C252.013,484.72 258.04,471.04 265.876,459.94C272.71,450.261 287.074,445.666 302.374,445.621C421.772,445.268 609.819,529.087 718.908,514.637"
        transform="translate(-80.011 -1.34)"
      ></path>
    </svg>