    <svg
      xmlns="http://www.w3.org/2000/svg"
      fillRule="evenodd"
      strokeLinecap="round"
      strokeLinejoin="round"
      strokeMiterlimit="1.5"
      clipRule="evenodd"
      viewBox="0 0 300 300"
      height="3rem"
    >
      <ellipse
        cx="86.211"
        cy="73.368"
        fill="#DFE3EE"
        stroke="#8A8A8A"
        strokeWidth="0.21"
        rx="34.314"
        ry="65.078"
        transform="matrix(.83589 -.55257 .553 .83654 31.585 55.306)"
      ></ellipse>
      <ellipse
        cx="147.607"
        cy="161.086"
        fill="#FFF400"
        rx="135.505"
        ry="89.764"
        transform="translate(10.788 -1.996)"
      ></ellipse>
      <path
        fill="#030303"
        d="M15.7 143.867l6.586 13.053H9.113l6.587-13.053z"
        transform="rotate(-89.914 20.54 153.552)"
      ></path>
      <path
        fill="#030303"
        d="M89.82 72.959s-12.723 6.11-18.611 9.708C65.375 86.233 54.491 94.55 54.491 94.55s-3.453 38.844-3.338 58.313c.12 20.274 4.056 63.329 4.056 63.329l16.248 10.444 21.126 11.458c-5.174-54.534-6.451-109.537-2.763-165.135z"
        transform="matrix(1.01873 0 0 .94923 -1.715 12.114)"
      ></path>
      <path
        fill="#030303"
        d="M157.921 69.451s-17.377.227-23.81.825c-4.994.464-14.791 2.764-14.791 2.764-2.787 59.13-1.976 116.559 1.868 172.554 0 0 16.208 2.16 22.724 2.774 5.442.512 16.373.907 16.373.907s2.004-59.398 1.614-89.101c-.394-29.97-3.978-90.723-3.978-90.723z"
      ></path>
      <path
        fill="#030303"
        d="M230.24 80.023c-10.655-4.15-26.447-7.914-36.742-9.324 0 0 3.167 64.139 3.152 93.241-.014 27.145-3.244 81.371-3.244 81.371 10.042-1.702 26.014-5.619 36.582-9.65 6.434-51.797 6.694-103.674.252-155.638z"
        transform="translate(-3.306 1.193)"
      ></path>
      <path
        fill="#030303"
        d="M28.171 136.211s-2.508 7.85-2.92 11.92c-.575 5.669-.891 16.534-.528 22.099.252 3.862 2.707 11.291 2.707 11.291l.741-45.31z"
        transform="matrix(1.55324 0 0 1.07056 -15.293 -12.357)"
      ></path>
      <ellipse
        cx="262.547"
        cy="145.047"
        fill="#030303"
        rx="5.275"
        ry="24.987"
        transform="matrix(1 0 0 .79152 0 25.03)"
      ></ellipse>
      <path
        fill="#DFE3EE"
        stroke="#8A8A8A"
        strokeWidth="0.15"
        d="M86.211 8.291c18.938 0 34.314 29.16 34.314 65.077s-34.302 71.284-34.302 71.284-34.325-35.367-34.325-71.284c0-35.917 15.375-65.077 34.313-65.077z"
        transform="matrix(1.06972 -.8424 .87131 1.10644 -43.057 94.834)"
      ></path>
      <path
        stroke="#8A8A8A"
        strokeWidth="0.21"
        d="M290.39 179.48c-8.928 3.761-8.85 2.839-18.958.707l-.261 2.535s7.045 1.873 10.038 1.856c2.72-.017 7.922-1.963 7.922-1.963l1.259-3.135z"
      ></path>
    </svg>