<svg id="Layer_1" data-name="Layer 1" xmlns="http://www.w3.org/2000/svg" xmlns:xlink="http://www.w3.org/1999/xlink" viewBox="0 0 133.25 161.23">
  <defs>
    <style>
      .cls-1 {
        fill: #e23790;
      }

      .cls-2 {
        fill: #fffae9;
      }

      .cls-3 {
        fill: #ffcdaa;
      }

      .cls-4 {
        fill: url(#linear-gradient);
      }

      .cls-5 {
        fill: url(#radial-gradient);
      }

      .cls-6 {
        fill: url(#linear-gradient-2);
      }

      .cls-7 {
        fill: url(#linear-gradient-3);
      }

      .cls-8 {
        fill: url(#linear-gradient-4);
      }

      .cls-9 {
        fill: url(#radial-gradient-2);
      }
    </style>
    <linearGradient id="linear-gradient" x1="67.59" y1="73.07" x2="101" y2="73.07" gradientUnits="userSpaceOnUse">
      <stop offset="0.79" stop-color="#604a4a"/>
      <stop offset="0.88" stop-color="#624c4b"/>
      <stop offset="0.91" stop-color="#69514f"/>
      <stop offset="0.93" stop-color="#745b56"/>
      <stop offset="0.95" stop-color="#856961"/>
      <stop offset="0.96" stop-color="#9b7b6e"/>
      <stop offset="0.98" stop-color="#b7917e"/>
      <stop offset="0.99" stop-color="#d6ac91"/>
      <stop offset="1" stop-color="#fbc9a7"/>
      <stop offset="1" stop-color="#ffcdaa"/>
    </linearGradient>
    <radialGradient id="radial-gradient" cx="68.39" cy="71.03" r="11.42" gradientTransform="matrix(0, -1.58, -1, 0, 149.33, 213.34)" gradientUnits="userSpaceOnUse">
      <stop offset="0.07" stop-color="#ffb2b5"/>
      <stop offset="1" stop-color="#ffcdaa"/>
    </radialGradient>
    <linearGradient id="linear-gradient-2" x1="74.7" y1="19.91" x2="74.7" y2="180.85" gradientUnits="userSpaceOnUse">
      <stop offset="0.05" stop-color="#604a4a"/>
      <stop offset="0.06" stop-color="#654f4d"/>
      <stop offset="0.11" stop-color="#897363"/>
      <stop offset="0.16" stop-color="#a99377"/>
      <stop offset="0.22" stop-color="#c4ae88"/>
      <stop offset="0.29" stop-color="#dac595"/>
      <stop offset="0.37" stop-color="#ebd59f"/>
      <stop offset="0.47" stop-color="#f6e1a7"/>
      <stop offset="0.61" stop-color="#fde8ab"/>
      <stop offset="1" stop-color="#ffeaac"/>
    </linearGradient>
    <linearGradient id="linear-gradient-3" x1="6.13" y1="19.81" x2="6.13" y2="181.04" gradientTransform="matrix(-1, 0, 0, 1, 142.93, 0)" xlink:href="#linear-gradient-2"/>
    <linearGradient id="linear-gradient-4" x1="13.54" y1="73.07" x2="46.95" y2="73.07" gradientTransform="matrix(-1, 0, 0, 1, 156.15, 0)" xlink:href="#linear-gradient"/>
    <radialGradient id="radial-gradient-2" cx="98.88" cy="95.77" r="11.42" gradientTransform="translate(-23.94 9.78) scale(1.58 1)" xlink:href="#radial-gradient"/>
  </defs>
  <title>mee</title>
  <path class="cls-1" d="M57,64" transform="translate(-41.78 -19.81)"/>
  <path class="cls-2" d="M175,104.3c0,.28-1.36.64-3,.7s-3-.19-3-.47,1.33-.55,3-.62S175,104,175,104.3Z" transform="translate(-41.78 -19.81)"/>
  <g>
    <path class="cls-3" d="M151.92,95.69c0,26.74-4.71,41.46-17.5,54.89-7.18,7.54-17.89,17.5-27,17.5-11.5,0-30.11-14.05-38.19-25.46-9.82-13.86-9.55-24-9.55-46.94,0-41.74,20.66-75.58,46.14-75.58S151.92,54,151.92,95.69Z" transform="translate(-41.78 -19.81)"/>
    <g>
      <g>
        <path class="cls-4" d="M100.79,72.64c0,.74,1,3.46-1.2,4-1.59.4-6.4-1.2-9.2-2a48.68,48.68,0,0,0-5.2-1.6c-1.48-.32-1.33-.28-2.68-.62a12.26,12.26,0,0,0-6.56,0c-4.69,1.17-8.35,4.74-8.35,3.58,0-.48.82-1,1.79-1.79a25.08,25.08,0,0,1,14.81-4.77C93.35,69.44,100.79,70.87,100.79,72.64Z" transform="translate(-41.78 -19.81)"/>
        <path d="M77.3,85.85c-.18-.18-8.16-3.68-6.83-3.68,1.05,0,3.37.62,6.83,1.05a77.83,77.83,0,0,0,8.94,0c7.26,0,10,2.43,10,3.15s-2.73-1.58-10-1.58S77.83,86.37,77.3,85.85Z" transform="translate(-41.78 -19.81)"/>
      </g>
      <ellipse class="cls-5" cx="78.29" cy="105.55" rx="9.94" ry="20.06" transform="translate(-93.16 107.07) rotate(-62.77)"/>
    </g>
    <path class="cls-6" d="M43.72,71c-3.18,9.55-1.47,23.28-1.59,31.82-.38,27.31,22.48,76.43,25.46,78s-8-47.91-8-76.37c0-9.55,0-8,1.59-20.68S65.14,70,72.36,59.89c15.91-22.28,37.83-38.33,35-39.78S75.54,24.89,54.86,50.35C48.42,58.28,47.49,59.73,43.72,71Z" transform="translate(-41.78 -19.81)"/>
    <path class="cls-7" d="M163.06,75.8c3.18,9.55,1.47,26.47,1.59,35,.38,27.31-12.73,65.24-16,70-1.92,2.78-3.08-20.68-1.49-49.32.53-9.53,6.36-25.46,4.77-38.19s-.84-23.3-8.06-33.41c-15.91-22.28-37.83-38.33-35-39.78s19.2,1.59,39.88,27C155.18,55.1,159.29,64.5,163.06,75.8Z" transform="translate(-41.78 -19.81)"/>
    <path d="M128.21,132.46c1.05-1.33-3.56,2.3-8.54,4.23s-11.17,2.5-9.5,2.77a19.48,19.48,0,0,0,18-7Z" transform="translate(-41.78 -19.81)"/>
    <g>
      <g>
        <path class="cls-8" d="M109.42,72.64c0,.74-1,3.46,1.2,4,1.59.4,6.4-1.2,9.2-2A48.68,48.68,0,0,1,125,73c1.48-.32,1.33-.28,2.68-.62a12.26,12.26,0,0,1,6.56,0c4.69,1.17,8.35,4.74,8.35,3.58,0-.48-.82-1-1.79-1.79A25.08,25.08,0,0,0,126,69.44C116.85,69.44,109.42,70.87,109.42,72.64Z" transform="translate(-41.78 -19.81)"/>
        <path d="M132.9,85.85c.18-.18,8.16-3.68,6.83-3.68-1.05,0-3.37.62-6.83,1.05a77.83,77.83,0,0,1-8.94,0c-7.26,0-10,2.43-10,3.15s2.73-1.58,10-1.58S132.38,86.37,132.9,85.85Z" transform="translate(-41.78 -19.81)"/>
      </g>
      <ellipse class="cls-9" cx="131.91" cy="105.55" rx="20.06" ry="9.94" transform="translate(-75.45 52.25) rotate(-27.23)"/>
    </g>
  </g>
</svg>
